<svg width="459" height="165" viewBox="0 0 459 165" fill="none" xmlns="http://www.w3.org/2000/svg">
<path d="M215.247 82.2741C215.247 127.713 178.421 164.548 132.994 164.548C87.5674 164.548 50.7416 127.713 50.7416 82.2741C50.7416 36.8354 87.5674 0 132.994 0C178.421 0 215.247 36.8354 215.247 82.2741Z" fill="white"/>
<path d="M187.829 81.9313C187.829 112.034 163.432 136.438 133.337 136.438C103.242 136.438 78.8446 112.034 78.8446 81.9313C78.8446 51.8281 103.242 27.4247 133.337 27.4247C163.432 27.4247 187.829 51.8281 187.829 81.9313Z" fill="#171717"/>
<path d="M129.215 61.9203C121.535 63.7052 116.026 69.0598 113.854 77.1305C110.285 90.4782 120.138 104.214 133.25 104.214C139.146 104.214 142.094 103.127 148.068 98.5489C158.542 90.711 167.464 87.7621 179.101 88.3053C187.558 88.6933 192.833 90.1677 199.195 94.0479C207.574 99.2473 211.143 99.6353 217.582 96.376C224.564 92.8838 228.056 83.4939 224.875 76.8201C220.918 68.4389 212.694 65.49 205.091 69.6806C192.368 76.5872 186.316 78.2169 175.067 77.5961C171.265 77.4409 167.541 77.0529 166.688 76.8201C165.834 76.5872 164.128 76.1216 162.809 75.8112C158.774 74.8024 153.887 71.7759 148.068 66.5765C142.948 61.9979 136.198 60.3682 129.215 61.9203Z" fill="#171717"/>
<path fill-rule="evenodd" clip-rule="evenodd" d="M128 56.5717L127.975 56.5776C118.243 58.8392 111.235 65.7622 108.559 75.7045L108.557 75.7134C104.16 92.158 116.144 109.699 133.25 109.699C136.552 109.699 139.498 109.396 142.577 108.226C145.547 107.097 148.277 105.297 151.377 102.922C160.956 95.7602 168.645 93.3081 178.845 93.7843L178.85 93.7845C186.531 94.1369 190.878 95.4023 196.323 98.7204C200.589 101.366 204.438 103.332 208.443 103.827C212.738 104.359 216.398 103.121 220.047 101.276C224.945 98.8214 228.418 94.4295 230.178 89.7065C231.932 84.9973 232.179 79.4076 229.83 74.4707C227.328 69.1754 223.272 65.1993 218.208 63.3754C213.109 61.5387 207.522 62.0837 202.462 64.8674C196.219 68.2555 191.988 70.1362 188.124 71.1586C184.353 72.1564 180.646 72.4107 175.369 72.1195L175.33 72.1173L175.29 72.1157C173.494 72.0424 171.713 71.9136 170.297 71.7774C169.587 71.7092 168.997 71.6417 168.558 71.5823C168.21 71.5352 168.06 71.5065 168.044 71.5049C167.188 71.2712 165.482 70.8071 164.107 70.4821C161.38 69.7903 157.313 67.4822 151.723 62.4872M162.809 75.8112C164.128 76.1216 165.834 76.5872 166.688 76.8201C167.541 77.0529 171.265 77.4409 175.067 77.5961C186.316 78.2169 192.368 76.5872 205.091 69.6806C212.694 65.49 220.918 68.4389 224.875 76.8201C228.056 83.4939 224.564 92.8838 217.582 96.376C211.143 99.6353 207.574 99.2473 199.195 94.0479C192.833 90.1677 187.558 88.6933 179.101 88.3053C167.464 87.7621 158.542 90.711 148.068 98.5489C142.094 103.127 139.146 104.214 133.25 104.214C120.138 104.214 110.285 90.4782 113.854 77.1305C116.026 69.0598 121.535 63.7052 129.215 61.9203C136.198 60.3682 142.948 61.9979 148.068 66.5765C153.887 71.7759 158.774 74.8024 162.809 75.8112ZM128 56.5717L128.026 56.566ZM128.026 56.566C136.612 54.6574 145.195 56.6516 151.721 62.486Z" fill="white"/>
<path d="M18.204 105.302C12.1443 106.558 7.79844 110.326 6.08457 116.006C3.26895 125.4 11.0425 135.067 21.3869 135.067C26.0388 135.067 28.3648 134.302 33.0779 131.08C41.3411 125.564 48.3802 123.488 57.5616 123.871C64.2334 124.144 68.3956 125.181 73.4148 127.912C80.0254 131.571 82.841 131.844 87.9214 129.551C93.4302 127.093 96.1847 120.484 93.6751 115.788C90.5534 109.889 84.0652 107.814 78.0667 110.763C68.0284 115.624 63.2541 116.771 54.3787 116.334C51.3795 116.224 48.4414 115.951 47.7681 115.788C47.0948 115.624 45.7482 115.296 44.7076 115.078C41.5248 114.368 37.6686 112.238 33.0779 108.578C29.0381 105.356 23.7129 104.209 18.204 105.302Z" fill="#171717"/>
<path fill-rule="evenodd" clip-rule="evenodd" d="M17.1145 99.9259L17.0913 99.9307C9.23284 101.56 3.17815 106.656 0.834959 114.421L0.833502 114.426L0.832054 114.431C-3.167 127.773 7.83029 140.552 21.3869 140.552C24.0237 140.552 26.4304 140.337 28.9694 139.476C31.4241 138.644 33.6657 137.32 36.146 135.626C43.5163 130.711 49.4184 129.021 57.3335 129.351L57.3374 129.351C63.3277 129.596 66.6368 130.471 70.7781 132.721C74.1797 134.603 77.335 136.051 80.6406 136.416C84.186 136.807 87.2041 135.891 90.1674 134.554C97.9112 131.091 102.835 121.311 98.5168 113.213C93.9961 104.681 84.291 101.601 75.664 105.833C70.7647 108.204 67.493 109.497 64.5273 110.197C61.6368 110.879 58.7774 111.059 54.6483 110.855L54.6133 110.854L54.5782 110.852C53.1715 110.801 51.7769 110.711 50.6698 110.616C50.1152 110.569 49.657 110.522 49.3204 110.481C49.1086 110.456 48.9984 110.439 48.9636 110.434C48.2799 110.267 46.9526 109.946 45.8733 109.718C43.8955 109.269 40.8287 107.743 36.4967 104.29M44.7076 115.078C45.7482 115.296 47.0948 115.624 47.7681 115.788C48.4414 115.951 51.3795 116.224 54.3787 116.334C63.2541 116.771 68.0284 115.624 78.0667 110.763C84.0652 107.814 90.5534 109.889 93.6751 115.788C96.1847 120.484 93.4302 127.093 87.9214 129.551C82.841 131.844 80.0254 131.571 73.4148 127.912C68.3956 125.181 64.2334 124.144 57.5616 123.871C48.3802 123.488 41.3411 125.564 33.0779 131.08C28.3648 134.302 26.0388 135.067 21.3869 135.067C11.0425 135.067 3.26895 125.4 6.08457 116.006C7.79844 110.326 12.1443 106.558 18.204 105.302C23.7129 104.209 29.0381 105.356 33.0779 108.578C37.6686 112.238 41.5248 114.368 44.7076 115.078ZM36.4952 104.289C31.0516 99.9476 24.0409 98.5525 17.1378 99.9213L17.1145 99.9259" fill="white"/>
<path d="M89.8314 38.7144C94.0732 39.7136 97.1153 42.7112 98.315 47.2294C100.286 54.7017 94.8444 62.3912 87.6033 62.3912C84.347 62.3912 82.7188 61.783 79.4196 59.2198C73.6354 54.832 68.708 53.1811 62.281 53.4852C57.6108 53.7025 54.6972 54.5279 51.1838 56.7001C46.5564 59.6108 44.5854 59.828 41.0292 58.0034C37.173 56.0484 35.2449 50.7917 37.0016 47.0556C39.1868 42.3636 43.7285 40.7128 47.9275 43.0588C54.9543 46.9252 58.2963 47.8376 64.5091 47.49C66.6085 47.4031 68.6652 47.1859 69.1365 47.0556C69.6078 46.9252 70.5504 46.6646 71.2788 46.4908C73.5068 45.926 76.2062 44.2317 79.4196 41.321C82.2475 38.7578 85.9752 37.8455 89.8314 38.7144Z" fill="#171717"/>
<path fill-rule="evenodd" clip-rule="evenodd" d="M91.0624 33.3694L91.0883 33.3755C97.41 34.8646 101.925 39.4594 103.615 45.8214L103.617 45.8301C106.378 56.2991 98.9242 67.8761 87.6033 67.8761C85.6152 67.8761 83.6504 67.6916 81.5569 66.8852C79.578 66.1229 77.845 64.9399 76.0824 63.5721C71.1929 59.8684 67.5086 58.729 62.5402 58.9641L62.5358 58.9643C58.6533 59.1448 56.6763 59.7551 54.0837 61.3553C51.6945 62.857 49.1764 64.22 46.3869 64.5698C43.2994 64.957 40.7463 64.0214 38.5375 62.8894C35.1971 61.1913 32.9093 58.2067 31.7638 55.09C30.6225 51.9847 30.4152 48.1825 32.0356 44.7295C33.6397 41.291 36.3212 38.5464 39.8291 37.2656C43.3806 35.9688 47.2168 36.3851 50.5841 38.2605C53.9786 40.1277 56.1046 41.0636 57.9437 41.5568C59.687 42.0244 61.4496 42.1676 64.2029 42.0136L64.2426 42.0114L64.2824 42.0098C65.2266 41.9707 66.1638 41.9019 66.9014 41.83C67.2713 41.7939 67.5637 41.7597 67.7647 41.7322C67.8004 41.7273 67.8303 41.723 67.8548 41.7193C68.3531 41.5818 69.2242 41.3436 69.9576 41.1673C70.8757 40.9255 72.7549 39.958 75.7376 37.2566C79.9692 33.421 85.5485 32.127 91.0364 33.3635L91.0624 33.3694ZM79.4196 41.321C76.2062 44.2317 73.5068 45.926 71.2788 46.4908C70.5504 46.6646 69.6078 46.9252 69.1365 47.0556C68.6652 47.1859 66.6085 47.4031 64.5091 47.49C58.2963 47.8376 54.9543 46.9252 47.9275 43.0588C43.7285 40.7128 39.1868 42.3636 37.0016 47.0556C35.2449 50.7917 37.173 56.0484 41.0292 58.0034C44.5854 59.828 46.5564 59.6108 51.1838 56.7001C54.6972 54.5279 57.6108 53.7025 62.281 53.4852C68.708 53.1811 73.6354 54.832 79.4196 59.2198C82.7188 61.783 84.347 62.3912 87.6033 62.3912C94.8444 62.3912 100.286 54.7017 98.315 47.2294C97.1153 42.7112 94.0732 39.7136 89.8314 38.7144C85.9752 37.8455 82.2475 38.7578 79.4196 41.321ZM67.937 41.7064L67.9329 41.7071C67.9498 41.7038 67.9522 41.7037 67.937 41.7064Z" fill="white"/>
<path d="M256.501 82.3241C256.501 77.0698 257.638 72.3965 259.911 68.3041C262.185 64.1613 265.342 60.9531 269.384 58.6796C273.476 56.3556 278.099 55.1935 283.253 55.1935C289.568 55.1935 294.974 56.8608 299.47 60.1953C303.967 63.5298 306.973 68.0768 308.489 73.8363H294.241C293.18 71.6134 291.665 69.9209 289.694 68.7588C287.774 67.5968 285.577 67.0158 283.101 67.0158C279.11 67.0158 275.876 68.4052 273.401 71.1839C270.925 73.9627 269.687 77.6761 269.687 82.3241C269.687 86.9722 270.925 90.6856 273.401 93.4643C275.876 96.2431 279.11 97.6324 283.101 97.6324C285.577 97.6324 287.774 97.0514 289.694 95.8894C291.665 94.7274 293.18 93.0349 294.241 90.8119H308.489C306.973 96.5715 303.967 101.118 299.47 104.453C294.974 107.737 289.568 109.379 283.253 109.379C278.099 109.379 273.476 108.242 269.384 105.969C265.342 103.645 262.185 100.436 259.911 96.3441C257.638 92.2518 256.501 87.5785 256.501 82.3241ZM354.771 72.6238C353.811 70.8555 352.422 69.5167 350.603 68.6073C348.835 67.6473 346.738 67.1674 344.313 67.1674C340.12 67.1674 336.76 68.5567 334.234 71.3355C331.708 74.0637 330.444 77.7266 330.444 82.3241C330.444 87.2248 331.758 91.0645 334.385 93.8433C337.063 96.5715 340.726 97.9356 345.374 97.9356C348.557 97.9356 351.234 97.1272 353.407 95.5105C355.63 93.8938 357.247 91.5697 358.257 88.5384H341.812V78.9896H370.004V91.0393C369.044 94.2727 367.402 97.2788 365.078 100.058C362.804 102.836 359.899 105.085 356.363 106.802C352.826 108.52 348.835 109.379 344.389 109.379C339.134 109.379 334.436 108.242 330.293 105.969C326.201 103.645 322.992 100.436 320.668 96.3441C318.395 92.2518 317.258 87.5785 317.258 82.3241C317.258 77.0698 318.395 72.3965 320.668 68.3041C322.992 64.1613 326.201 60.9531 330.293 58.6796C334.385 56.3556 339.059 55.1935 344.313 55.1935C350.679 55.1935 356.034 56.7345 360.379 59.8164C364.774 62.8982 367.68 67.1674 369.094 72.6238H354.771ZM393.172 55.7998V109H380.213V55.7998H393.172ZM403.397 82.3241C403.397 77.0698 404.534 72.3965 406.807 68.3041C409.081 64.1613 412.238 60.9531 416.28 58.6796C420.373 56.3556 424.995 55.1935 430.149 55.1935C436.464 55.1935 441.87 56.8608 446.366 60.1953C450.863 63.5298 453.869 68.0768 455.385 73.8363H441.137C440.076 71.6134 438.561 69.9209 436.59 68.7588C434.67 67.5968 432.473 67.0158 429.997 67.0158C426.006 67.0158 422.772 68.4052 420.297 71.1839C417.821 73.9627 416.583 77.6761 416.583 82.3241C416.583 86.9722 417.821 90.6856 420.297 93.4643C422.772 96.2431 426.006 97.6324 429.997 97.6324C432.473 97.6324 434.67 97.0514 436.59 95.8894C438.561 94.7274 440.076 93.0349 441.137 90.8119H455.385C453.869 96.5715 450.863 101.118 446.366 104.453C441.87 107.737 436.464 109.379 430.149 109.379C424.995 109.379 420.373 108.242 416.28 105.969C412.238 103.645 409.081 100.436 406.807 96.3441C404.534 92.2518 403.397 87.5785 403.397 82.3241Z" fill="white"/>
<path d="M261.35 131.5C261.35 130.813 261.503 130.2 261.81 129.66C262.123 129.113 262.547 128.69 263.08 128.39C263.62 128.083 264.223 127.93 264.89 127.93C265.67 127.93 266.353 128.13 266.94 128.53C267.527 128.93 267.937 129.483 268.17 130.19H266.56C266.4 129.857 266.173 129.607 265.88 129.44C265.593 129.273 265.26 129.19 264.88 129.19C264.473 129.19 264.11 129.287 263.79 129.48C263.477 129.667 263.23 129.933 263.05 130.28C262.877 130.627 262.79 131.033 262.79 131.5C262.79 131.96 262.877 132.367 263.05 132.72C263.23 133.067 263.477 133.337 263.79 133.53C264.11 133.717 264.473 133.81 264.88 133.81C265.26 133.81 265.593 133.727 265.88 133.56C266.173 133.387 266.4 133.133 266.56 132.8H268.17C267.937 133.513 267.527 134.07 266.94 134.47C266.36 134.863 265.677 135.06 264.89 135.06C264.223 135.06 263.62 134.91 263.08 134.61C262.547 134.303 262.123 133.88 261.81 133.34C261.503 132.8 261.35 132.187 261.35 131.5ZM272.486 129.38C272.906 129.38 273.279 129.473 273.606 129.66C273.932 129.84 274.186 130.11 274.366 130.47C274.552 130.823 274.646 131.25 274.646 131.75V135H273.246V131.94C273.246 131.5 273.136 131.163 272.916 130.93C272.696 130.69 272.396 130.57 272.016 130.57C271.629 130.57 271.322 130.69 271.096 130.93C270.876 131.163 270.766 131.5 270.766 131.94V135H269.366V127.6H270.766V130.15C270.946 129.91 271.186 129.723 271.486 129.59C271.786 129.45 272.119 129.38 272.486 129.38ZM275.617 132.21C275.617 131.65 275.727 131.153 275.947 130.72C276.174 130.287 276.477 129.953 276.857 129.72C277.244 129.487 277.674 129.37 278.147 129.37C278.56 129.37 278.92 129.453 279.227 129.62C279.54 129.787 279.79 129.997 279.977 130.25V129.46H281.387V135H279.977V134.19C279.797 134.45 279.547 134.667 279.227 134.84C278.914 135.007 278.55 135.09 278.137 135.09C277.67 135.09 277.244 134.97 276.857 134.73C276.477 134.49 276.174 134.153 275.947 133.72C275.727 133.28 275.617 132.777 275.617 132.21ZM279.977 132.23C279.977 131.89 279.91 131.6 279.777 131.36C279.644 131.113 279.464 130.927 279.237 130.8C279.01 130.667 278.767 130.6 278.507 130.6C278.247 130.6 278.007 130.663 277.787 130.79C277.567 130.917 277.387 131.103 277.247 131.35C277.114 131.59 277.047 131.877 277.047 132.21C277.047 132.543 277.114 132.837 277.247 133.09C277.387 133.337 277.567 133.527 277.787 133.66C278.014 133.793 278.254 133.86 278.507 133.86C278.767 133.86 279.01 133.797 279.237 133.67C279.464 133.537 279.644 133.35 279.777 133.11C279.91 132.863 279.977 132.57 279.977 132.23ZM284.154 130.32C284.334 130.027 284.568 129.797 284.854 129.63C285.148 129.463 285.481 129.38 285.854 129.38V130.85H285.484C285.044 130.85 284.711 130.953 284.484 131.16C284.264 131.367 284.154 131.727 284.154 132.24V135H282.754V129.46H284.154V130.32ZM287.507 128.8C287.261 128.8 287.054 128.723 286.887 128.57C286.727 128.41 286.647 128.213 286.647 127.98C286.647 127.747 286.727 127.553 286.887 127.4C287.054 127.24 287.261 127.16 287.507 127.16C287.754 127.16 287.957 127.24 288.117 127.4C288.284 127.553 288.367 127.747 288.367 127.98C288.367 128.213 288.284 128.41 288.117 128.57C287.957 128.723 287.754 128.8 287.507 128.8ZM288.197 129.46V135H286.797V129.46H288.197ZM291.701 135.09C291.247 135.09 290.841 135.01 290.481 134.85C290.121 134.683 289.834 134.46 289.621 134.18C289.414 133.9 289.301 133.59 289.281 133.25H290.691C290.717 133.463 290.821 133.64 291.001 133.78C291.187 133.92 291.417 133.99 291.691 133.99C291.957 133.99 292.164 133.937 292.311 133.83C292.464 133.723 292.541 133.587 292.541 133.42C292.541 133.24 292.447 133.107 292.261 133.02C292.081 132.927 291.791 132.827 291.391 132.72C290.977 132.62 290.637 132.517 290.371 132.41C290.111 132.303 289.884 132.14 289.691 131.92C289.504 131.7 289.411 131.403 289.411 131.03C289.411 130.723 289.497 130.443 289.671 130.19C289.851 129.937 290.104 129.737 290.431 129.59C290.764 129.443 291.154 129.37 291.601 129.37C292.261 129.37 292.787 129.537 293.181 129.87C293.574 130.197 293.791 130.64 293.831 131.2H292.491C292.471 130.98 292.377 130.807 292.211 130.68C292.051 130.547 291.834 130.48 291.561 130.48C291.307 130.48 291.111 130.527 290.971 130.62C290.837 130.713 290.771 130.843 290.771 131.01C290.771 131.197 290.864 131.34 291.051 131.44C291.237 131.533 291.527 131.63 291.921 131.73C292.321 131.83 292.651 131.933 292.911 132.04C293.171 132.147 293.394 132.313 293.581 132.54C293.774 132.76 293.874 133.053 293.881 133.42C293.881 133.74 293.791 134.027 293.611 134.28C293.437 134.533 293.184 134.733 292.851 134.88C292.524 135.02 292.141 135.09 291.701 135.09ZM301.91 129.38C302.59 129.38 303.137 129.59 303.55 130.01C303.97 130.423 304.18 131.003 304.18 131.75V135H302.78V131.94C302.78 131.507 302.67 131.177 302.45 130.95C302.23 130.717 301.93 130.6 301.55 130.6C301.17 130.6 300.867 130.717 300.64 130.95C300.42 131.177 300.31 131.507 300.31 131.94V135H298.91V131.94C298.91 131.507 298.8 131.177 298.58 130.95C298.36 130.717 298.06 130.6 297.68 130.6C297.293 130.6 296.987 130.717 296.76 130.95C296.54 131.177 296.43 131.507 296.43 131.94V135H295.03V129.46H296.43V130.13C296.61 129.897 296.84 129.713 297.12 129.58C297.407 129.447 297.72 129.38 298.06 129.38C298.493 129.38 298.88 129.473 299.22 129.66C299.56 129.84 299.823 130.1 300.01 130.44C300.19 130.12 300.45 129.863 300.79 129.67C301.137 129.477 301.51 129.38 301.91 129.38ZM305.148 132.21C305.148 131.65 305.258 131.153 305.478 130.72C305.705 130.287 306.008 129.953 306.388 129.72C306.775 129.487 307.205 129.37 307.678 129.37C308.092 129.37 308.452 129.453 308.758 129.62C309.072 129.787 309.322 129.997 309.508 130.25V129.46H310.918V135H309.508V134.19C309.328 134.45 309.078 134.667 308.758 134.84C308.445 135.007 308.082 135.09 307.668 135.09C307.202 135.09 306.775 134.97 306.388 134.73C306.008 134.49 305.705 134.153 305.478 133.72C305.258 133.28 305.148 132.777 305.148 132.21ZM309.508 132.23C309.508 131.89 309.442 131.6 309.308 131.36C309.175 131.113 308.995 130.927 308.768 130.8C308.542 130.667 308.298 130.6 308.038 130.6C307.778 130.6 307.538 130.663 307.318 130.79C307.098 130.917 306.918 131.103 306.778 131.35C306.645 131.59 306.578 131.877 306.578 132.21C306.578 132.543 306.645 132.837 306.778 133.09C306.918 133.337 307.098 133.527 307.318 133.66C307.545 133.793 307.785 133.86 308.038 133.86C308.298 133.86 308.542 133.797 308.768 133.67C308.995 133.537 309.175 133.35 309.308 133.11C309.442 132.863 309.508 132.57 309.508 132.23ZM319.529 130.12C319.369 129.827 319.149 129.603 318.869 129.45C318.589 129.297 318.262 129.22 317.889 129.22C317.475 129.22 317.109 129.313 316.789 129.5C316.469 129.687 316.219 129.953 316.039 130.3C315.859 130.647 315.769 131.047 315.769 131.5C315.769 131.967 315.859 132.373 316.039 132.72C316.225 133.067 316.482 133.333 316.809 133.52C317.135 133.707 317.515 133.8 317.949 133.8C318.482 133.8 318.919 133.66 319.259 133.38C319.599 133.093 319.822 132.697 319.929 132.19H317.529V131.12H321.309V132.34C321.215 132.827 321.015 133.277 320.709 133.69C320.402 134.103 320.005 134.437 319.519 134.69C319.039 134.937 318.499 135.06 317.899 135.06C317.225 135.06 316.615 134.91 316.069 134.61C315.529 134.303 315.102 133.88 314.789 133.34C314.482 132.8 314.329 132.187 314.329 131.5C314.329 130.813 314.482 130.2 314.789 129.66C315.102 129.113 315.529 128.69 316.069 128.39C316.615 128.083 317.222 127.93 317.889 127.93C318.675 127.93 319.359 128.123 319.939 128.51C320.519 128.89 320.919 129.427 321.139 130.12H319.529ZM323.744 127.6V135H322.344V127.6H323.744ZM327.588 135.09C327.054 135.09 326.574 134.973 326.148 134.74C325.721 134.5 325.384 134.163 325.138 133.73C324.898 133.297 324.778 132.797 324.778 132.23C324.778 131.663 324.901 131.163 325.148 130.73C325.401 130.297 325.744 129.963 326.178 129.73C326.611 129.49 327.094 129.37 327.628 129.37C328.161 129.37 328.644 129.49 329.078 129.73C329.511 129.963 329.851 130.297 330.098 130.73C330.351 131.163 330.478 131.663 330.478 132.23C330.478 132.797 330.348 133.297 330.087 133.73C329.834 134.163 329.488 134.5 329.048 134.74C328.614 134.973 328.128 135.09 327.588 135.09ZM327.588 133.87C327.841 133.87 328.078 133.81 328.298 133.69C328.524 133.563 328.704 133.377 328.838 133.13C328.971 132.883 329.038 132.583 329.038 132.23C329.038 131.703 328.898 131.3 328.618 131.02C328.344 130.733 328.008 130.59 327.608 130.59C327.208 130.59 326.871 130.733 326.598 131.02C326.331 131.3 326.198 131.703 326.198 132.23C326.198 132.757 326.328 133.163 326.588 133.45C326.854 133.73 327.188 133.87 327.588 133.87ZM332.904 130.27C333.084 130.003 333.331 129.787 333.644 129.62C333.964 129.453 334.328 129.37 334.734 129.37C335.208 129.37 335.634 129.487 336.014 129.72C336.401 129.953 336.704 130.287 336.924 130.72C337.151 131.147 337.264 131.643 337.264 132.21C337.264 132.777 337.151 133.28 336.924 133.72C336.704 134.153 336.401 134.49 336.014 134.73C335.634 134.97 335.208 135.09 334.734 135.09C334.321 135.09 333.958 135.01 333.644 134.85C333.338 134.683 333.091 134.47 332.904 134.21V135H331.504V127.6H332.904V130.27ZM335.834 132.21C335.834 131.877 335.764 131.59 335.624 131.35C335.491 131.103 335.311 130.917 335.084 130.79C334.864 130.663 334.624 130.6 334.364 130.6C334.111 130.6 333.871 130.667 333.644 130.8C333.424 130.927 333.244 131.113 333.104 131.36C332.971 131.607 332.904 131.897 332.904 132.23C332.904 132.563 332.971 132.853 333.104 133.1C333.244 133.347 333.424 133.537 333.644 133.67C333.871 133.797 334.111 133.86 334.364 133.86C334.624 133.86 334.864 133.793 335.084 133.66C335.311 133.527 335.491 133.337 335.624 133.09C335.764 132.843 335.834 132.55 335.834 132.21ZM337.922 132.21C337.922 131.65 338.032 131.153 338.252 130.72C338.478 130.287 338.782 129.953 339.162 129.72C339.548 129.487 339.978 129.37 340.452 129.37C340.865 129.37 341.225 129.453 341.532 129.62C341.845 129.787 342.095 129.997 342.282 130.25V129.46H343.692V135H342.282V134.19C342.102 134.45 341.852 134.667 341.532 134.84C341.218 135.007 340.855 135.09 340.442 135.09C339.975 135.09 339.548 134.97 339.162 134.73C338.782 134.49 338.478 134.153 338.252 133.72C338.032 133.28 337.922 132.777 337.922 132.21ZM342.282 132.23C342.282 131.89 342.215 131.6 342.082 131.36C341.948 131.113 341.768 130.927 341.542 130.8C341.315 130.667 341.072 130.6 340.812 130.6C340.552 130.6 340.312 130.663 340.092 130.79C339.872 130.917 339.692 131.103 339.552 131.35C339.418 131.59 339.352 131.877 339.352 132.21C339.352 132.543 339.418 132.837 339.552 133.09C339.692 133.337 339.872 133.527 340.092 133.66C340.318 133.793 340.558 133.86 340.812 133.86C341.072 133.86 341.315 133.797 341.542 133.67C341.768 133.537 341.948 133.35 342.082 133.11C342.215 132.863 342.282 132.57 342.282 132.23ZM346.459 127.6V135H345.059V127.6H346.459ZM351.625 128.02V135H350.225V128.02H351.625ZM356.078 129.38C356.738 129.38 357.272 129.59 357.678 130.01C358.085 130.423 358.288 131.003 358.288 131.75V135H356.888V131.94C356.888 131.5 356.778 131.163 356.558 130.93C356.338 130.69 356.038 130.57 355.658 130.57C355.272 130.57 354.965 130.69 354.738 130.93C354.518 131.163 354.408 131.5 354.408 131.94V135H353.008V129.46H354.408V130.15C354.595 129.91 354.832 129.723 355.118 129.59C355.412 129.45 355.732 129.38 356.078 129.38ZM359.26 132.21C359.26 131.65 359.37 131.153 359.59 130.72C359.816 130.287 360.123 129.953 360.51 129.72C360.896 129.487 361.326 129.37 361.8 129.37C362.16 129.37 362.503 129.45 362.83 129.61C363.156 129.763 363.416 129.97 363.61 130.23V127.6H365.03V135H363.61V134.18C363.436 134.453 363.193 134.673 362.88 134.84C362.566 135.007 362.203 135.09 361.79 135.09C361.323 135.09 360.896 134.97 360.51 134.73C360.123 134.49 359.816 134.153 359.59 133.72C359.37 133.28 359.26 132.777 359.26 132.21ZM363.62 132.23C363.62 131.89 363.553 131.6 363.42 131.36C363.286 131.113 363.106 130.927 362.88 130.8C362.653 130.667 362.41 130.6 362.15 130.6C361.89 130.6 361.65 130.663 361.43 130.79C361.21 130.917 361.03 131.103 360.89 131.35C360.756 131.59 360.69 131.877 360.69 132.21C360.69 132.543 360.756 132.837 360.89 133.09C361.03 133.337 361.21 133.527 361.43 133.66C361.656 133.793 361.896 133.86 362.15 133.86C362.41 133.86 362.653 133.797 362.88 133.67C363.106 133.537 363.286 133.35 363.42 133.11C363.553 132.863 363.62 132.57 363.62 132.23ZM371.627 129.46V135H370.217V134.3C370.037 134.54 369.8 134.73 369.507 134.87C369.22 135.003 368.907 135.07 368.567 135.07C368.134 135.07 367.75 134.98 367.417 134.8C367.084 134.613 366.82 134.343 366.627 133.99C366.44 133.63 366.347 133.203 366.347 132.71V129.46H367.747V132.51C367.747 132.95 367.857 133.29 368.077 133.53C368.297 133.763 368.597 133.88 368.977 133.88C369.364 133.88 369.667 133.763 369.887 133.53C370.107 133.29 370.217 132.95 370.217 132.51V129.46H371.627ZM375.128 135.09C374.675 135.09 374.268 135.01 373.908 134.85C373.548 134.683 373.262 134.46 373.048 134.18C372.842 133.9 372.728 133.59 372.708 133.25H374.118C374.145 133.463 374.248 133.64 374.428 133.78C374.615 133.92 374.845 133.99 375.118 133.99C375.385 133.99 375.592 133.937 375.738 133.83C375.892 133.723 375.968 133.587 375.968 133.42C375.968 133.24 375.875 133.107 375.688 133.02C375.508 132.927 375.218 132.827 374.818 132.72C374.405 132.62 374.065 132.517 373.798 132.41C373.538 132.303 373.312 132.14 373.118 131.92C372.932 131.7 372.838 131.403 372.838 131.03C372.838 130.723 372.925 130.443 373.098 130.19C373.278 129.937 373.532 129.737 373.858 129.59C374.192 129.443 374.582 129.37 375.028 129.37C375.688 129.37 376.215 129.537 376.608 129.87C377.002 130.197 377.218 130.64 377.258 131.2H375.918C375.898 130.98 375.805 130.807 375.638 130.68C375.478 130.547 375.262 130.48 374.988 130.48C374.735 130.48 374.538 130.527 374.398 130.62C374.265 130.713 374.198 130.843 374.198 131.01C374.198 131.197 374.292 131.34 374.478 131.44C374.665 131.533 374.955 131.63 375.348 131.73C375.748 131.83 376.078 131.933 376.338 132.04C376.598 132.147 376.822 132.313 377.008 132.54C377.202 132.76 377.302 133.053 377.308 133.42C377.308 133.74 377.218 134.027 377.038 134.28C376.865 134.533 376.612 134.733 376.278 134.88C375.952 135.02 375.568 135.09 375.128 135.09ZM380.088 130.61V133.29C380.088 133.477 380.131 133.613 380.218 133.7C380.311 133.78 380.464 133.82 380.678 133.82H381.328V135H380.448C379.268 135 378.678 134.427 378.678 133.28V130.61H378.018V129.46H378.678V128.09H380.088V129.46H381.328V130.61H380.088ZM383.735 130.32C383.915 130.027 384.148 129.797 384.435 129.63C384.728 129.463 385.061 129.38 385.435 129.38V130.85H385.065C384.625 130.85 384.291 130.953 384.065 131.16C383.845 131.367 383.735 131.727 383.735 132.24V135H382.335V129.46H383.735V130.32ZM387.088 128.8C386.841 128.8 386.634 128.723 386.468 128.57C386.308 128.41 386.228 128.213 386.228 127.98C386.228 127.747 386.308 127.553 386.468 127.4C386.634 127.24 386.841 127.16 387.088 127.16C387.334 127.16 387.538 127.24 387.698 127.4C387.864 127.553 387.948 127.747 387.948 127.98C387.948 128.213 387.864 128.41 387.698 128.57C387.538 128.723 387.334 128.8 387.088 128.8ZM387.778 129.46V135H386.378V129.46H387.778ZM388.801 132.21C388.801 131.65 388.911 131.153 389.131 130.72C389.357 130.287 389.661 129.953 390.041 129.72C390.427 129.487 390.857 129.37 391.331 129.37C391.744 129.37 392.104 129.453 392.411 129.62C392.724 129.787 392.974 129.997 393.161 130.25V129.46H394.571V135H393.161V134.19C392.981 134.45 392.731 134.667 392.411 134.84C392.097 135.007 391.734 135.09 391.321 135.09C390.854 135.09 390.427 134.97 390.041 134.73C389.661 134.49 389.357 134.153 389.131 133.72C388.911 133.28 388.801 132.777 388.801 132.21ZM393.161 132.23C393.161 131.89 393.094 131.6 392.961 131.36C392.827 131.113 392.647 130.927 392.421 130.8C392.194 130.667 391.951 130.6 391.691 130.6C391.431 130.6 391.191 130.663 390.971 130.79C390.751 130.917 390.571 131.103 390.431 131.35C390.297 131.59 390.231 131.877 390.231 132.21C390.231 132.543 390.297 132.837 390.431 133.09C390.571 133.337 390.751 133.527 390.971 133.66C391.197 133.793 391.437 133.86 391.691 133.86C391.951 133.86 392.194 133.797 392.421 133.67C392.647 133.537 392.827 133.35 392.961 133.11C393.094 132.863 393.161 132.57 393.161 132.23ZM397.338 127.6V135H395.938V127.6H397.338ZM400.764 131.5C400.764 130.813 400.917 130.2 401.224 129.66C401.537 129.113 401.961 128.69 402.494 128.39C403.034 128.083 403.637 127.93 404.304 127.93C405.084 127.93 405.767 128.13 406.354 128.53C406.941 128.93 407.351 129.483 407.584 130.19H405.974C405.814 129.857 405.587 129.607 405.294 129.44C405.007 129.273 404.674 129.19 404.294 129.19C403.887 129.19 403.524 129.287 403.204 129.48C402.891 129.667 402.644 129.933 402.464 130.28C402.291 130.627 402.204 131.033 402.204 131.5C402.204 131.96 402.291 132.367 402.464 132.72C402.644 133.067 402.891 133.337 403.204 133.53C403.524 133.717 403.887 133.81 404.294 133.81C404.674 133.81 405.007 133.727 405.294 133.56C405.587 133.387 405.814 133.133 405.974 132.8H407.584C407.351 133.513 406.941 134.07 406.354 134.47C405.774 134.863 405.091 135.06 404.304 135.06C403.637 135.06 403.034 134.91 402.494 134.61C401.961 134.303 401.537 133.88 401.224 133.34C400.917 132.8 400.764 132.187 400.764 131.5ZM411.24 135.09C410.707 135.09 410.227 134.973 409.8 134.74C409.373 134.5 409.037 134.163 408.79 133.73C408.55 133.297 408.43 132.797 408.43 132.23C408.43 131.663 408.553 131.163 408.8 130.73C409.053 130.297 409.397 129.963 409.83 129.73C410.263 129.49 410.747 129.37 411.28 129.37C411.813 129.37 412.297 129.49 412.73 129.73C413.163 129.963 413.503 130.297 413.75 130.73C414.003 131.163 414.13 131.663 414.13 132.23C414.13 132.797 414 133.297 413.74 133.73C413.487 134.163 413.14 134.5 412.7 134.74C412.267 134.973 411.78 135.09 411.24 135.09ZM411.24 133.87C411.493 133.87 411.73 133.81 411.95 133.69C412.177 133.563 412.357 133.377 412.49 133.13C412.623 132.883 412.69 132.583 412.69 132.23C412.69 131.703 412.55 131.3 412.27 131.02C411.997 130.733 411.66 130.59 411.26 130.59C410.86 130.59 410.523 130.733 410.25 131.02C409.983 131.3 409.85 131.703 409.85 132.23C409.85 132.757 409.98 133.163 410.24 133.45C410.507 133.73 410.84 133.87 411.24 133.87ZM422.037 129.38C422.717 129.38 423.263 129.59 423.677 130.01C424.097 130.423 424.307 131.003 424.307 131.75V135H422.907V131.94C422.907 131.507 422.797 131.177 422.577 130.95C422.357 130.717 422.057 130.6 421.677 130.6C421.297 130.6 420.993 130.717 420.767 130.95C420.547 131.177 420.437 131.507 420.437 131.94V135H419.037V131.94C419.037 131.507 418.927 131.177 418.707 130.95C418.487 130.717 418.187 130.6 417.807 130.6C417.42 130.6 417.113 130.717 416.887 130.95C416.667 131.177 416.557 131.507 416.557 131.94V135H415.157V129.46H416.557V130.13C416.737 129.897 416.967 129.713 417.247 129.58C417.533 129.447 417.847 129.38 418.187 129.38C418.62 129.38 419.007 129.473 419.347 129.66C419.687 129.84 419.95 130.1 420.137 130.44C420.317 130.12 420.577 129.863 420.917 129.67C421.263 129.477 421.637 129.38 422.037 129.38ZM427.035 130.26C427.215 130.007 427.462 129.797 427.775 129.63C428.095 129.457 428.459 129.37 428.865 129.37C429.339 129.37 429.765 129.487 430.145 129.72C430.532 129.953 430.835 130.287 431.055 130.72C431.282 131.147 431.395 131.643 431.395 132.21C431.395 132.777 431.282 133.28 431.055 133.72C430.835 134.153 430.532 134.49 430.145 134.73C429.765 134.97 429.339 135.09 428.865 135.09C428.459 135.09 428.099 135.007 427.785 134.84C427.479 134.673 427.229 134.463 427.035 134.21V137.64H425.635V129.46H427.035V130.26ZM429.965 132.21C429.965 131.877 429.895 131.59 429.755 131.35C429.622 131.103 429.442 130.917 429.215 130.79C428.995 130.663 428.755 130.6 428.495 130.6C428.242 130.6 428.002 130.667 427.775 130.8C427.555 130.927 427.375 131.113 427.235 131.36C427.102 131.607 427.035 131.897 427.035 132.23C427.035 132.563 427.102 132.853 427.235 133.1C427.375 133.347 427.555 133.537 427.775 133.67C428.002 133.797 428.242 133.86 428.495 133.86C428.755 133.86 428.995 133.793 429.215 133.66C429.442 133.527 429.622 133.337 429.755 133.09C429.895 132.843 429.965 132.55 429.965 132.21ZM432.053 132.21C432.053 131.65 432.163 131.153 432.383 130.72C432.609 130.287 432.913 129.953 433.293 129.72C433.679 129.487 434.109 129.37 434.583 129.37C434.996 129.37 435.356 129.453 435.663 129.62C435.976 129.787 436.226 129.997 436.413 130.25V129.46H437.823V135H436.413V134.19C436.233 134.45 435.983 134.667 435.663 134.84C435.349 135.007 434.986 135.09 434.573 135.09C434.106 135.09 433.679 134.97 433.293 134.73C432.913 134.49 432.609 134.153 432.383 133.72C432.163 133.28 432.053 132.777 432.053 132.21ZM436.413 132.23C436.413 131.89 436.346 131.6 436.213 131.36C436.079 131.113 435.899 130.927 435.673 130.8C435.446 130.667 435.203 130.6 434.943 130.6C434.683 130.6 434.443 130.663 434.223 130.79C434.003 130.917 433.823 131.103 433.683 131.35C433.549 131.59 433.483 131.877 433.483 132.21C433.483 132.543 433.549 132.837 433.683 133.09C433.823 133.337 434.003 133.527 434.223 133.66C434.449 133.793 434.689 133.86 434.943 133.86C435.203 133.86 435.446 133.797 435.673 133.67C435.899 133.537 436.079 133.35 436.213 133.11C436.346 132.863 436.413 132.57 436.413 132.23ZM442.26 129.38C442.92 129.38 443.453 129.59 443.86 130.01C444.267 130.423 444.47 131.003 444.47 131.75V135H443.07V131.94C443.07 131.5 442.96 131.163 442.74 130.93C442.52 130.69 442.22 130.57 441.84 130.57C441.453 130.57 441.147 130.69 440.92 130.93C440.7 131.163 440.59 131.5 440.59 131.94V135H439.19V129.46H440.59V130.15C440.777 129.91 441.013 129.723 441.3 129.59C441.593 129.45 441.913 129.38 442.26 129.38ZM451.101 129.46L447.671 137.62H446.181L447.381 134.86L445.161 129.46H446.731L448.161 133.33L449.611 129.46H451.101Z" fill="white"/>
</svg>
