<svg width="156" height="156" viewBox="0 0 156 156" fill="none" xmlns="http://www.w3.org/2000/svg">
<path d="M148 78C152.418 78 156.043 81.5914 155.59 85.9865C153.815 103.241 146.323 119.498 134.187 132.102C120.192 146.636 101.11 155.182 80.9474 155.944C60.7852 156.707 41.112 149.627 26.0595 136.191C11.007 122.755 1.74647 104.009 0.222744 83.8905C-1.30099 63.7716 5.03067 43.8449 17.8879 28.2955C30.7452 12.746 49.1277 2.78375 69.1747 0.500876C89.2217 -1.782 109.373 3.79217 125.398 16.0527C139.294 26.6852 149.148 41.6288 153.502 58.4189C154.611 62.6957 151.569 66.792 147.202 67.4574L131.694 69.8199C127.327 70.4853 123.312 67.4472 121.906 63.2588C118.985 54.5616 113.525 46.8653 106.143 41.2176C96.6286 33.9377 84.6631 30.6279 72.7598 31.9834C60.8565 33.3389 49.9416 39.2542 42.3073 48.487C34.6731 57.7198 30.9136 69.5516 31.8183 81.4976C32.723 93.4436 38.2217 104.574 47.1594 112.552C56.0971 120.53 67.7784 124.734 79.7501 124.281C91.7217 123.828 103.052 118.754 111.362 110.124C117.809 103.429 122.048 94.9983 123.625 85.9606C124.384 81.6081 127.896 78 132.314 78H148Z" fill="white"/>
</svg>
