<svg width="174" height="55" viewBox="0 0 174 55" fill="none" xmlns="http://www.w3.org/2000/svg">
<path d="M71.28 27.2455C71.28 42.2927 59.085 54.4909 44.0417 54.4909C28.9983 54.4909 16.8033 42.2927 16.8033 27.2455C16.8033 12.1982 28.9983 0 44.0417 0C59.085 0 71.28 12.1982 71.28 27.2455Z" fill="white"/>
<path d="M62.2006 27.1319C62.2006 37.1007 54.1214 45.182 44.1552 45.182C34.189 45.182 26.1097 37.1007 26.1097 27.1319C26.1097 17.1631 34.189 9.08182 44.1552 9.08182C54.1214 9.08182 62.2006 17.1631 62.2006 27.1319Z" fill="#171717"/>
<path d="M42.7903 20.5052C40.2468 21.0963 38.4227 22.8695 37.7033 25.5421C36.5215 29.9623 39.7844 34.5109 44.1263 34.5109C46.0789 34.5109 47.0552 34.1511 49.0334 32.6349C52.5018 30.0394 55.4564 29.0628 59.3102 29.2427C62.1106 29.3712 63.8576 29.8595 65.9643 31.1444C68.7391 32.8662 69.9209 32.9947 72.0533 31.9154C74.3656 30.7589 75.5217 27.6494 74.4683 25.4393C73.1581 22.6639 70.4347 21.6873 67.9169 23.0751C63.7035 25.3622 61.6995 25.9019 57.9742 25.6963C56.7153 25.6449 55.4821 25.5164 55.1995 25.4393C54.9169 25.3622 54.3516 25.208 53.9149 25.1052C52.5789 24.7712 50.9603 23.7689 49.0334 22.0471C47.3378 20.5309 45.1026 19.9912 42.7903 20.5052Z" fill="#171717"/>
<path fill-rule="evenodd" clip-rule="evenodd" d="M42.3879 18.734L42.3794 18.736C39.1566 19.4849 36.8361 21.7775 35.9499 25.0699L35.9491 25.0728C34.493 30.5186 38.4617 36.3273 44.1263 36.3273C45.2199 36.3273 46.1954 36.2269 47.2151 35.8395C48.1986 35.4657 49.1028 34.8695 50.1294 34.0832C53.3012 31.7114 55.8477 30.8994 59.2255 31.0571L59.2269 31.0572C61.7705 31.1739 63.2101 31.5929 65.0133 32.6917C66.426 33.5679 67.7005 34.2189 69.0268 34.3829C70.4493 34.5589 71.6612 34.1491 72.8696 33.5379C74.4916 32.7252 75.6418 31.2708 76.2245 29.7067C76.8055 28.1472 76.887 26.2962 76.1092 24.6613C75.2807 22.9078 73.9375 21.591 72.2607 20.9871C70.5721 20.3788 68.722 20.5593 67.0462 21.4811C64.9788 22.6031 63.5777 23.2259 62.2981 23.5645C61.0493 23.8949 59.8216 23.9791 58.0742 23.8827L58.0612 23.882L58.0482 23.8815C57.4533 23.8572 56.8635 23.8145 56.3945 23.7694C56.1597 23.7468 55.964 23.7245 55.8187 23.7048C55.7036 23.6892 55.6539 23.6797 55.6487 23.6792C55.365 23.6018 54.8003 23.4481 54.3448 23.3405C53.4419 23.1114 52.0949 22.3471 50.2436 20.6929M53.9149 25.1052C54.3516 25.208 54.9169 25.3622 55.1995 25.4393C55.4821 25.5164 56.7153 25.6449 57.9742 25.6963C61.6995 25.9019 63.7035 25.3622 67.9169 23.0751C70.4347 21.6873 73.1581 22.6639 74.4683 25.4393C75.5217 27.6494 74.3656 30.7589 72.0533 31.9154C69.9209 32.9947 68.7391 32.8662 65.9643 31.1444C63.8576 29.8595 62.1106 29.3712 59.3102 29.2427C55.4564 29.0628 52.5018 30.0394 49.0334 32.6349C47.0552 34.1511 46.0789 34.5109 44.1263 34.5109C39.7844 34.5109 36.5215 29.9623 37.7033 25.5421C38.4227 22.8695 40.2468 21.0963 42.7903 20.5052C45.1026 19.9912 47.3378 20.5309 49.0334 22.0471C50.9603 23.7689 52.5789 24.7712 53.9149 25.1052ZM42.3879 18.734L42.3964 18.7321ZM42.3964 18.7321C45.2398 18.1001 48.0821 18.7604 50.2432 20.6925Z" fill="white"/>
<path d="M6.02834 34.8711C4.02164 35.2871 2.58249 36.535 2.01494 38.4159C1.08253 41.5267 3.65678 44.728 7.08237 44.728C8.62287 44.728 9.39312 44.4748 10.9539 43.4077C13.6903 41.581 16.0213 40.8937 19.0618 41.0203C21.2712 41.1108 22.6495 41.4544 24.3117 42.3587C26.5008 43.5705 27.4332 43.6609 29.1156 42.9013C30.9399 42.0874 31.852 39.899 31.0209 38.3436C29.9872 36.3903 27.8386 35.703 25.8522 36.6797C22.5279 38.2893 20.9469 38.6691 18.0078 38.5245C17.0145 38.4883 16.0416 38.3979 15.8186 38.3436C15.5957 38.2893 15.1497 38.1808 14.8051 38.1085C13.7511 37.8734 12.4741 37.168 10.9539 35.9563C9.61609 34.8892 7.85262 34.5094 6.02834 34.8711Z" fill="#171717"/>
<path fill-rule="evenodd" clip-rule="evenodd" d="M5.66755 33.0909L5.65985 33.0925C3.0575 33.632 1.05246 35.3195 0.276501 37.8911L0.276018 37.8927L0.275539 37.8943C-1.04877 42.3126 2.59304 46.5443 7.08237 46.5443C7.95555 46.5443 8.75254 46.4733 9.59337 46.1882C10.4063 45.9127 11.1486 45.4742 11.9699 44.9131C14.4106 43.2855 16.3651 42.726 18.9863 42.8351L18.9875 42.8352C20.9713 42.9164 22.0671 43.206 23.4385 43.9513C24.565 44.5745 25.6099 45.0539 26.7045 45.1747C27.8786 45.3042 28.8781 45.001 29.8594 44.5583C32.4237 43.4116 34.0544 40.1727 32.6243 37.4909C31.1272 34.6656 27.9133 33.6456 25.0565 35.047C23.4341 35.8324 22.3506 36.2603 21.3685 36.4921C20.4113 36.7181 19.4644 36.7776 18.097 36.7103L18.0854 36.7097L18.0738 36.7093C17.608 36.6923 17.1462 36.6626 16.7795 36.6311C16.5959 36.6153 16.4441 36.5998 16.3327 36.5864C16.2625 36.5779 16.226 36.5723 16.2145 36.5706C15.9881 36.5155 15.5486 36.409 15.1912 36.3336C14.5362 36.1849 13.5206 35.6796 12.086 34.5361M14.8051 38.1085C15.1497 38.1808 15.5957 38.2893 15.8186 38.3436C16.0416 38.3979 17.0145 38.4883 18.0078 38.5245C20.9469 38.6691 22.5279 38.2893 25.8522 36.6797C27.8386 35.703 29.9872 36.3903 31.0209 38.3436C31.852 39.899 30.9399 42.0874 29.1156 42.9013C27.4332 43.6609 26.5008 43.5705 24.3117 42.3587C22.6495 41.4544 21.2712 41.1108 19.0618 41.0203C16.0213 40.8937 13.6903 41.581 10.9539 43.4077C9.39312 44.4748 8.62287 44.728 7.08237 44.728C3.65678 44.728 1.08253 41.5267 2.01494 38.4159C2.58249 36.535 4.02164 35.2871 6.02834 34.8711C7.85262 34.5094 9.61609 34.8892 10.9539 35.9563C12.4741 37.168 13.7511 37.8734 14.8051 38.1085ZM12.0856 34.5357C10.2829 33.0981 7.96127 32.6361 5.67525 33.0894L5.66755 33.0909" fill="white"/>
<path d="M29.7481 12.8204C31.1528 13.1513 32.1602 14.144 32.5575 15.6402C33.2101 18.1147 31.4082 20.6611 29.0102 20.6611C27.9319 20.6611 27.3927 20.4597 26.3002 19.6109C24.3847 18.1579 22.753 17.6112 20.6247 17.7119C19.0781 17.7838 18.1132 18.0572 16.9498 18.7765C15.4174 19.7404 14.7647 19.8123 13.587 19.2081C12.31 18.5607 11.6715 16.8199 12.2533 15.5827C12.9769 14.0289 14.4809 13.4822 15.8714 14.2591C18.1984 15.5395 19.3051 15.8416 21.3625 15.7265C22.0577 15.6978 22.7388 15.6258 22.8949 15.5827C23.0509 15.5395 23.3631 15.4532 23.6043 15.3956C24.3421 15.2086 25.236 14.6475 26.3002 13.6836C27.2366 12.8348 28.4711 12.5327 29.7481 12.8204Z" fill="#171717"/>
<path fill-rule="evenodd" clip-rule="evenodd" d="M30.1557 11.0504L30.1643 11.0525C32.2578 11.5456 33.7531 13.0672 34.3125 15.174L34.3133 15.1769C35.2277 18.6437 32.7592 22.4775 29.0103 22.4775C28.3519 22.4775 27.7012 22.4164 27.0079 22.1493C26.3526 21.8969 25.7787 21.5052 25.195 21.0522C23.5759 19.8257 22.3558 19.4484 20.7105 19.5262L20.709 19.5263C19.4233 19.5861 18.7686 19.7882 17.9101 20.3181C17.1189 20.8154 16.285 21.2668 15.3612 21.3826C14.3388 21.5108 13.4933 21.201 12.7619 20.8261C11.6557 20.2638 10.8981 19.2754 10.5187 18.2433C10.1408 17.215 10.0721 15.9559 10.6087 14.8124C11.14 13.6737 12.0279 12.7648 13.1896 12.3407C14.3657 11.9112 15.6361 12.0491 16.7511 12.6701C17.8753 13.2885 18.5793 13.5984 19.1883 13.7617C19.7656 13.9166 20.3493 13.964 21.2611 13.913L21.2742 13.9123L21.2874 13.9117C21.6001 13.8988 21.9105 13.876 22.1547 13.8522C22.2772 13.8403 22.374 13.8289 22.4406 13.8198C22.4524 13.8182 22.4623 13.8168 22.4704 13.8155C22.6354 13.77 22.9239 13.6911 23.1668 13.6327C23.4708 13.5527 24.0931 13.2323 25.0808 12.3377C26.4822 11.0675 28.3298 10.639 30.1471 11.0485L30.1557 11.0504ZM26.3002 13.6836C25.236 14.6475 24.3421 15.2086 23.6043 15.3956C23.3631 15.4532 23.0509 15.5395 22.8949 15.5827C22.7388 15.6258 22.0577 15.6978 21.3625 15.7265C19.3051 15.8416 18.1984 15.5395 15.8714 14.2591C14.4809 13.4822 12.9769 14.0289 12.2533 15.5827C11.6715 16.8199 12.31 18.5607 13.587 19.2081C14.7647 19.8123 15.4174 19.7404 16.9498 18.7765C18.1132 18.0572 19.0781 17.7838 20.6247 17.7119C22.753 17.6112 24.3847 18.1579 26.3002 19.6109C27.3927 20.4597 27.9319 20.6611 29.0102 20.6611C31.4082 20.6611 33.2101 18.1147 32.5575 15.6402C32.1602 14.144 31.1528 13.1513 29.7481 12.8204C28.4711 12.5327 27.2366 12.8348 26.3002 13.6836ZM22.4976 13.8113L22.4963 13.8115C22.5019 13.8104 22.5027 13.8104 22.4976 13.8113Z" fill="white"/>
<path d="M85.1979 26.4302C85.1979 24.1513 85.691 22.1244 86.677 20.3495C87.6631 18.5527 89.0326 17.1613 90.7856 16.1752C92.5605 15.1672 94.5655 14.6633 96.8006 14.6633C99.5396 14.6633 101.884 15.3864 103.834 16.8326C105.785 18.2788 107.088 20.2509 107.746 22.7489H101.567C101.106 21.7848 100.449 21.0507 99.5944 20.5467C98.7617 20.0428 97.8086 19.7908 96.7348 19.7908C95.0038 19.7908 93.6014 20.3934 92.5277 21.5985C91.4539 22.8037 90.9171 24.4143 90.9171 26.4302C90.9171 28.4462 91.4539 30.0567 92.5277 31.2619C93.6014 32.4671 95.0038 33.0697 96.7348 33.0697C97.8086 33.0697 98.7617 32.8177 99.5944 32.3137C100.449 31.8097 101.106 31.0757 101.567 30.1115H107.746C107.088 32.6095 105.785 34.5817 103.834 36.0279C101.884 37.4522 99.5396 38.1643 96.8006 38.1643C94.5655 38.1643 92.5605 37.6713 90.7856 36.6853C89.0326 35.6773 87.6631 34.2858 86.677 32.5109C85.691 30.736 85.1979 28.7091 85.1979 26.4302ZM127.819 22.223C127.403 21.4561 126.8 20.8754 126.012 20.481C125.245 20.0647 124.335 19.8565 123.283 19.8565C121.465 19.8565 120.008 20.4591 118.912 21.6643C117.816 22.8476 117.268 24.4362 117.268 26.4302C117.268 28.5557 117.838 30.2211 118.978 31.4263C120.139 32.6095 121.728 33.2012 123.744 33.2012C125.124 33.2012 126.285 32.8506 127.228 32.1494C128.192 31.4482 128.893 30.4402 129.331 29.1255H122.199V24.984H134.426V30.2101C134.01 31.6125 133.297 32.9163 132.289 34.1215C131.303 35.3267 130.043 36.3018 128.51 37.0468C126.976 37.7918 125.245 38.1643 123.316 38.1643C121.037 38.1643 119 37.6713 117.203 36.6853C115.428 35.6773 114.036 34.2858 113.028 32.5109C112.042 30.736 111.549 28.7091 111.549 26.4302C111.549 24.1513 112.042 22.1244 113.028 20.3495C114.036 18.5527 115.428 17.1613 117.203 16.1752C118.978 15.1672 121.005 14.6633 123.283 14.6633C126.044 14.6633 128.367 15.3316 130.252 16.6682C132.158 18.0049 133.418 19.8565 134.032 22.223H127.819ZM144.474 14.9262V38H138.854V14.9262H144.474ZM148.909 26.4302C148.909 24.1513 149.402 22.1244 150.388 20.3495C151.374 18.5527 152.744 17.1613 154.497 16.1752C156.272 15.1672 158.277 14.6633 160.512 14.6633C163.251 14.6633 165.596 15.3864 167.546 16.8326C169.496 18.2788 170.8 20.2509 171.457 22.7489H165.278C164.818 21.7848 164.16 21.0507 163.306 20.5467C162.473 20.0428 161.52 19.7908 160.446 19.7908C158.715 19.7908 157.313 20.3934 156.239 21.5985C155.165 22.8037 154.628 24.4143 154.628 26.4302C154.628 28.4462 155.165 30.0567 156.239 31.2619C157.313 32.4671 158.715 33.0697 160.446 33.0697C161.52 33.0697 162.473 32.8177 163.306 32.3137C164.16 31.8097 164.818 31.0757 165.278 30.1115H171.457C170.8 32.6095 169.496 34.5817 167.546 36.0279C165.596 37.4522 163.251 38.1643 160.512 38.1643C158.277 38.1643 156.272 37.6713 154.497 36.6853C152.744 35.6773 151.374 34.2858 150.388 32.5109C149.402 30.736 148.909 28.7091 148.909 26.4302Z" fill="white"/>
<path d="M87.3011 48.42C87.3011 48.1222 87.3676 47.8561 87.5006 47.6219C87.6365 47.3848 87.8201 47.2012 88.0515 47.0711C88.2857 46.9381 88.5473 46.8716 88.8365 46.8716C89.1748 46.8716 89.4712 46.9584 89.7256 47.1318C89.98 47.3053 90.1579 47.5453 90.2591 47.8518H89.5608C89.4914 47.7072 89.3931 47.5988 89.2659 47.5265C89.1415 47.4542 88.997 47.4181 88.8321 47.4181C88.6558 47.4181 88.4982 47.46 88.3594 47.5439C88.2235 47.6248 88.1165 47.7405 88.0384 47.8908C87.9633 48.0412 87.9257 48.2176 87.9257 48.42C87.9257 48.6195 87.9633 48.7959 88.0384 48.9491C88.1165 49.0995 88.2235 49.2166 88.3594 49.3004C88.4982 49.3814 88.6558 49.4219 88.8321 49.4219C88.997 49.4219 89.1415 49.3857 89.2659 49.3134C89.3931 49.2383 89.4914 49.1284 89.5608 48.9838H90.2591C90.1579 49.2932 89.98 49.5346 89.7256 49.7081C89.474 49.8787 89.1777 49.964 88.8365 49.964C88.5473 49.964 88.2857 49.899 88.0515 49.7688C87.8201 49.6358 87.6365 49.4522 87.5006 49.218C87.3676 48.9838 87.3011 48.7178 87.3011 48.42ZM92.1309 47.5005C92.3131 47.5005 92.475 47.541 92.6167 47.6219C92.7583 47.7 92.8682 47.8171 92.9463 47.9733C93.0272 48.1265 93.0677 48.3116 93.0677 48.5284V49.938H92.4605V48.6108C92.4605 48.42 92.4128 48.274 92.3174 48.1728C92.222 48.0687 92.0919 48.0166 91.927 48.0166C91.7593 48.0166 91.6263 48.0687 91.528 48.1728C91.4326 48.274 91.3849 48.42 91.3849 48.6108V49.938H90.7777V46.7285H91.3849V47.8345C91.463 47.7304 91.5671 47.6494 91.6972 47.5916C91.8273 47.5309 91.9719 47.5005 92.1309 47.5005ZM93.489 48.7279C93.489 48.485 93.5367 48.2696 93.6321 48.0817C93.7304 47.8937 93.862 47.7492 94.0268 47.648C94.1945 47.5468 94.381 47.4962 94.5863 47.4962C94.7656 47.4962 94.9217 47.5323 95.0547 47.6046C95.1906 47.6769 95.299 47.768 95.38 47.8778V47.5352H95.9915V49.938H95.38V49.5867C95.3019 49.6994 95.1935 49.7934 95.0547 49.8686C94.9188 49.9409 94.7612 49.977 94.582 49.977C94.3796 49.977 94.1945 49.925 94.0268 49.8209C93.862 49.7168 93.7304 49.5708 93.6321 49.3828C93.5367 49.192 93.489 48.9737 93.489 48.7279ZM95.38 48.7366C95.38 48.5891 95.3511 48.4634 95.2933 48.3593C95.2354 48.2523 95.1574 48.1713 95.0591 48.1164C94.9607 48.0586 94.8552 48.0296 94.7424 48.0296C94.6297 48.0296 94.5256 48.0571 94.4302 48.112C94.3347 48.167 94.2567 48.2479 94.196 48.3549C94.1381 48.459 94.1092 48.5833 94.1092 48.7279C94.1092 48.8725 94.1381 48.9997 94.196 49.1096C94.2567 49.2166 94.3347 49.299 94.4302 49.3568C94.5285 49.4146 94.6326 49.4436 94.7424 49.4436C94.8552 49.4436 94.9607 49.4161 95.0591 49.3611C95.1574 49.3033 95.2354 49.2224 95.2933 49.1183C95.3511 49.0113 95.38 48.8841 95.38 48.7366ZM97.1918 47.9082C97.2699 47.781 97.3711 47.6812 97.4954 47.6089C97.6226 47.5366 97.7672 47.5005 97.9291 47.5005V48.1381H97.7686C97.5778 48.1381 97.4332 48.1829 97.3349 48.2725C97.2395 48.3622 97.1918 48.5183 97.1918 48.7409V49.938H96.5846V47.5352H97.1918V47.9082ZM98.646 47.2489C98.539 47.2489 98.4494 47.2157 98.3771 47.1492C98.3077 47.0798 98.273 46.9945 98.273 46.8933C98.273 46.7921 98.3077 46.7082 98.3771 46.6417C98.4494 46.5723 98.539 46.5377 98.646 46.5377C98.753 46.5377 98.8412 46.5723 98.9106 46.6417C98.9829 46.7082 99.019 46.7921 99.019 46.8933C99.019 46.9945 98.9829 47.0798 98.9106 47.1492C98.8412 47.2157 98.753 47.2489 98.646 47.2489ZM98.9453 47.5352V49.938H98.3381V47.5352H98.9453ZM100.465 49.977C100.268 49.977 100.092 49.9423 99.9356 49.8729C99.7794 49.8006 99.6551 49.7038 99.5626 49.5823C99.4729 49.4609 99.4238 49.3264 99.4151 49.179H100.027C100.038 49.2715 100.083 49.3481 100.161 49.4089C100.242 49.4696 100.342 49.4999 100.46 49.4999C100.576 49.4999 100.666 49.4768 100.729 49.4305C100.796 49.3843 100.829 49.325 100.829 49.2527C100.829 49.1746 100.789 49.1168 100.708 49.0792C100.629 49.0387 100.504 48.9954 100.33 48.9491C100.151 48.9057 100.004 48.8609 99.8878 48.8147C99.7751 48.7684 99.6768 48.6976 99.5929 48.6021C99.512 48.5067 99.4715 48.3781 99.4715 48.2161C99.4715 48.0831 99.5091 47.9617 99.5842 47.8518C99.6623 47.7419 99.7722 47.6552 99.9139 47.5916C100.058 47.528 100.228 47.4962 100.421 47.4962C100.708 47.4962 100.936 47.5685 101.107 47.713C101.277 47.8547 101.371 48.047 101.389 48.2899H100.807C100.799 48.1944 100.758 48.1193 100.686 48.0643C100.616 48.0065 100.523 47.9776 100.404 47.9776C100.294 47.9776 100.209 47.9978 100.148 48.0383C100.09 48.0788 100.061 48.1352 100.061 48.2075C100.061 48.2884 100.102 48.3506 100.183 48.394C100.264 48.4344 100.39 48.4764 100.56 48.5197C100.734 48.5631 100.877 48.6079 100.989 48.6542C101.102 48.7005 101.199 48.7727 101.28 48.871C101.364 48.9665 101.407 49.0937 101.41 49.2527C101.41 49.3915 101.371 49.5158 101.293 49.6257C101.218 49.7356 101.108 49.8223 100.963 49.8859C100.822 49.9467 100.656 49.977 100.465 49.977ZM104.893 47.5005C105.188 47.5005 105.425 47.5916 105.604 47.7737C105.786 47.953 105.877 48.2046 105.877 48.5284V49.938H105.27V48.6108C105.27 48.4229 105.222 48.2797 105.127 48.1814C105.031 48.0802 104.901 48.0296 104.736 48.0296C104.572 48.0296 104.44 48.0802 104.342 48.1814C104.246 48.2797 104.199 48.4229 104.199 48.6108V49.938H103.591V48.6108C103.591 48.4229 103.544 48.2797 103.448 48.1814C103.353 48.0802 103.223 48.0296 103.058 48.0296C102.89 48.0296 102.757 48.0802 102.659 48.1814C102.564 48.2797 102.516 48.4229 102.516 48.6108V49.938H101.909V47.5352H102.516V47.8258C102.594 47.7246 102.694 47.6451 102.815 47.5872C102.939 47.5294 103.075 47.5005 103.223 47.5005C103.411 47.5005 103.578 47.541 103.726 47.6219C103.873 47.7 103.988 47.8128 104.069 47.9602C104.147 47.8215 104.259 47.7101 104.407 47.6263C104.557 47.5424 104.719 47.5005 104.893 47.5005ZM106.297 48.7279C106.297 48.485 106.345 48.2696 106.44 48.0817C106.539 47.8937 106.67 47.7492 106.835 47.648C107.003 47.5468 107.189 47.4962 107.394 47.4962C107.574 47.4962 107.73 47.5323 107.863 47.6046C107.999 47.6769 108.107 47.768 108.188 47.8778V47.5352H108.8V49.938H108.188V49.5867C108.11 49.6994 108.002 49.7934 107.863 49.8686C107.727 49.9409 107.569 49.977 107.39 49.977C107.188 49.977 107.003 49.925 106.835 49.8209C106.67 49.7168 106.539 49.5708 106.44 49.3828C106.345 49.192 106.297 48.9737 106.297 48.7279ZM108.188 48.7366C108.188 48.5891 108.159 48.4634 108.101 48.3593C108.044 48.2523 107.966 48.1713 107.867 48.1164C107.769 48.0586 107.663 48.0296 107.551 48.0296C107.438 48.0296 107.334 48.0571 107.238 48.112C107.143 48.167 107.065 48.2479 107.004 48.3549C106.946 48.459 106.917 48.5833 106.917 48.7279C106.917 48.8725 106.946 48.9997 107.004 49.1096C107.065 49.2166 107.143 49.299 107.238 49.3568C107.337 49.4146 107.441 49.4436 107.551 49.4436C107.663 49.4436 107.769 49.4161 107.867 49.3611C107.966 49.3033 108.044 49.2224 108.101 49.1183C108.159 49.0113 108.188 48.8841 108.188 48.7366ZM112.534 47.8215C112.465 47.6942 112.369 47.5974 112.248 47.5309C112.126 47.4644 111.985 47.4311 111.823 47.4311C111.644 47.4311 111.485 47.4716 111.346 47.5525C111.207 47.6335 111.098 47.7492 111.02 47.8995C110.942 48.0499 110.903 48.2234 110.903 48.42C110.903 48.6224 110.942 48.7988 111.02 48.9491C111.101 49.0995 111.213 49.2151 111.354 49.2961C111.496 49.377 111.661 49.4175 111.849 49.4175C112.08 49.4175 112.27 49.3568 112.417 49.2354C112.564 49.111 112.661 48.939 112.708 48.7192H111.667V48.2552H113.306V48.7843C113.266 48.9954 113.179 49.1906 113.046 49.3698C112.913 49.5491 112.741 49.6937 112.53 49.8035C112.322 49.9105 112.087 49.964 111.827 49.964C111.535 49.964 111.271 49.899 111.033 49.7688C110.799 49.6358 110.614 49.4522 110.478 49.218C110.345 48.9838 110.279 48.7178 110.279 48.42C110.279 48.1222 110.345 47.8561 110.478 47.6219C110.614 47.3848 110.799 47.2012 111.033 47.0711C111.271 46.9381 111.534 46.8716 111.823 46.8716C112.164 46.8716 112.46 46.9555 112.712 47.1232C112.963 47.288 113.137 47.5207 113.232 47.8215H112.534ZM114.363 46.7285V49.938H113.755V46.7285H114.363ZM116.029 49.977C115.798 49.977 115.59 49.9264 115.405 49.8252C115.22 49.7211 115.074 49.5751 114.967 49.3872C114.863 49.1992 114.811 48.9824 114.811 48.7366C114.811 48.4908 114.864 48.274 114.971 48.086C115.081 47.8981 115.23 47.7535 115.418 47.6523C115.606 47.5482 115.815 47.4962 116.047 47.4962C116.278 47.4962 116.488 47.5482 116.676 47.6523C116.864 47.7535 117.011 47.8981 117.118 48.086C117.228 48.274 117.283 48.4908 117.283 48.7366C117.283 48.9824 117.226 49.1992 117.114 49.3872C117.004 49.5751 116.853 49.7211 116.663 49.8252C116.475 49.9264 116.264 49.977 116.029 49.977ZM116.029 49.4479C116.139 49.4479 116.242 49.4219 116.337 49.3698C116.436 49.3149 116.514 49.2339 116.572 49.1269C116.629 49.02 116.658 48.8898 116.658 48.7366C116.658 48.5082 116.598 48.3332 116.476 48.2118C116.358 48.0875 116.212 48.0253 116.038 48.0253C115.865 48.0253 115.719 48.0875 115.6 48.2118C115.484 48.3332 115.427 48.5082 115.427 48.7366C115.427 48.965 115.483 49.1414 115.596 49.2657C115.711 49.3872 115.856 49.4479 116.029 49.4479ZM118.335 47.8865C118.414 47.7709 118.521 47.6769 118.656 47.6046C118.795 47.5323 118.953 47.4962 119.129 47.4962C119.334 47.4962 119.52 47.5468 119.684 47.648C119.852 47.7492 119.984 47.8937 120.079 48.0817C120.177 48.2667 120.226 48.4821 120.226 48.7279C120.226 48.9737 120.177 49.192 120.079 49.3828C119.984 49.5708 119.852 49.7168 119.684 49.8209C119.52 49.925 119.334 49.977 119.129 49.977C118.95 49.977 118.792 49.9423 118.656 49.8729C118.523 49.8006 118.416 49.7081 118.335 49.5954V49.938H117.728V46.7285H118.335V47.8865ZM119.606 48.7279C119.606 48.5833 119.576 48.459 119.515 48.3549C119.457 48.2479 119.379 48.167 119.281 48.112C119.186 48.0571 119.081 48.0296 118.969 48.0296C118.859 48.0296 118.755 48.0586 118.656 48.1164C118.561 48.1713 118.483 48.2523 118.422 48.3593C118.364 48.4662 118.335 48.592 118.335 48.7366C118.335 48.8812 118.364 49.0069 118.422 49.1139C118.483 49.2209 118.561 49.3033 118.656 49.3611C118.755 49.4161 118.859 49.4436 118.969 49.4436C119.081 49.4436 119.186 49.4146 119.281 49.3568C119.379 49.299 119.457 49.2166 119.515 49.1096C119.576 49.0026 119.606 48.8754 119.606 48.7279ZM120.512 48.7279C120.512 48.485 120.559 48.2696 120.655 48.0817C120.753 47.8937 120.885 47.7492 121.049 47.648C121.217 47.5468 121.404 47.4962 121.609 47.4962C121.788 47.4962 121.944 47.5323 122.077 47.6046C122.213 47.6769 122.322 47.768 122.403 47.8778V47.5352H123.014V49.938H122.403V49.5867C122.324 49.6994 122.216 49.7934 122.077 49.8686C121.941 49.9409 121.784 49.977 121.605 49.977C121.402 49.977 121.217 49.925 121.049 49.8209C120.885 49.7168 120.753 49.5708 120.655 49.3828C120.559 49.192 120.512 48.9737 120.512 48.7279ZM122.403 48.7366C122.403 48.5891 122.374 48.4634 122.316 48.3593C122.258 48.2523 122.18 48.1713 122.082 48.1164C121.983 48.0586 121.878 48.0296 121.765 48.0296C121.652 48.0296 121.548 48.0571 121.453 48.112C121.357 48.167 121.279 48.2479 121.219 48.3549C121.161 48.459 121.132 48.5833 121.132 48.7279C121.132 48.8725 121.161 48.9997 121.219 49.1096C121.279 49.2166 121.357 49.299 121.453 49.3568C121.551 49.4146 121.655 49.4436 121.765 49.4436C121.878 49.4436 121.983 49.4161 122.082 49.3611C122.18 49.3033 122.258 49.2224 122.316 49.1183C122.374 49.0113 122.403 48.8841 122.403 48.7366ZM124.214 46.7285V49.938H123.607V46.7285H124.214ZM126.455 46.9106V49.938H125.848V46.9106H126.455ZM128.386 47.5005C128.673 47.5005 128.904 47.5916 129.08 47.7737C129.257 47.953 129.345 48.2046 129.345 48.5284V49.938H128.738V48.6108C128.738 48.42 128.69 48.274 128.595 48.1728C128.499 48.0687 128.369 48.0166 128.204 48.0166C128.037 48.0166 127.903 48.0687 127.805 48.1728C127.71 48.274 127.662 48.42 127.662 48.6108V49.938H127.055V47.5352H127.662V47.8345C127.743 47.7304 127.846 47.6494 127.97 47.5916C128.097 47.5309 128.236 47.5005 128.386 47.5005ZM129.766 48.7279C129.766 48.485 129.814 48.2696 129.909 48.0817C130.008 47.8937 130.141 47.7492 130.308 47.648C130.476 47.5468 130.663 47.4962 130.868 47.4962C131.024 47.4962 131.173 47.5309 131.315 47.6003C131.456 47.6668 131.569 47.7564 131.653 47.8692V46.7285H132.269V49.938H131.653V49.5823C131.578 49.7009 131.472 49.7963 131.336 49.8686C131.2 49.9409 131.043 49.977 130.863 49.977C130.661 49.977 130.476 49.925 130.308 49.8209C130.141 49.7168 130.008 49.5708 129.909 49.3828C129.814 49.192 129.766 48.9737 129.766 48.7279ZM131.657 48.7366C131.657 48.5891 131.628 48.4634 131.57 48.3593C131.513 48.2523 131.435 48.1713 131.336 48.1164C131.238 48.0586 131.132 48.0296 131.02 48.0296C130.907 48.0296 130.803 48.0571 130.707 48.112C130.612 48.167 130.534 48.2479 130.473 48.3549C130.415 48.459 130.386 48.5833 130.386 48.7279C130.386 48.8725 130.415 48.9997 130.473 49.1096C130.534 49.2166 130.612 49.299 130.707 49.3568C130.806 49.4146 130.91 49.4436 131.02 49.4436C131.132 49.4436 131.238 49.4161 131.336 49.3611C131.435 49.3033 131.513 49.2224 131.57 49.1183C131.628 49.0113 131.657 48.8841 131.657 48.7366ZM135.13 47.5352V49.938H134.519V49.6344C134.44 49.7385 134.338 49.8209 134.211 49.8816C134.086 49.9394 133.95 49.9683 133.803 49.9683C133.615 49.9683 133.449 49.9293 133.304 49.8512C133.16 49.7703 133.045 49.6532 132.961 49.4999C132.881 49.3438 132.84 49.1587 132.84 48.9448V47.5352H133.447V48.858C133.447 49.0489 133.495 49.1963 133.59 49.3004C133.686 49.4016 133.816 49.4522 133.981 49.4522C134.148 49.4522 134.28 49.4016 134.375 49.3004C134.471 49.1963 134.519 49.0489 134.519 48.858V47.5352H135.13ZM136.649 49.977C136.452 49.977 136.276 49.9423 136.12 49.8729C135.963 49.8006 135.839 49.7038 135.747 49.5823C135.657 49.4609 135.608 49.3264 135.599 49.179H136.211C136.222 49.2715 136.267 49.3481 136.345 49.4089C136.426 49.4696 136.526 49.4999 136.644 49.4999C136.76 49.4999 136.85 49.4768 136.913 49.4305C136.98 49.3843 137.013 49.325 137.013 49.2527C137.013 49.1746 136.973 49.1168 136.892 49.0792C136.813 49.0387 136.688 48.9954 136.514 48.9491C136.335 48.9057 136.187 48.8609 136.072 48.8147C135.959 48.7684 135.861 48.6976 135.777 48.6021C135.696 48.5067 135.655 48.3781 135.655 48.2161C135.655 48.0831 135.693 47.9617 135.768 47.8518C135.846 47.7419 135.956 47.6552 136.098 47.5916C136.242 47.528 136.412 47.4962 136.605 47.4962C136.892 47.4962 137.12 47.5685 137.291 47.713C137.461 47.8547 137.555 48.047 137.572 48.2899H136.991C136.983 48.1944 136.942 48.1193 136.87 48.0643C136.8 48.0065 136.706 47.9776 136.588 47.9776C136.478 47.9776 136.393 47.9978 136.332 48.0383C136.274 48.0788 136.245 48.1352 136.245 48.2075C136.245 48.2884 136.286 48.3506 136.367 48.394C136.448 48.4344 136.573 48.4764 136.744 48.5197C136.918 48.5631 137.061 48.6079 137.173 48.6542C137.286 48.7005 137.383 48.7727 137.464 48.871C137.548 48.9665 137.591 49.0937 137.594 49.2527C137.594 49.3915 137.555 49.5158 137.477 49.6257C137.402 49.7356 137.292 49.8223 137.147 49.8859C137.006 49.9467 136.839 49.977 136.649 49.977ZM138.8 48.034V49.1963C138.8 49.2773 138.818 49.3366 138.856 49.3742C138.896 49.4089 138.963 49.4262 139.055 49.4262H139.337V49.938H138.956C138.444 49.938 138.188 49.6893 138.188 49.192V48.034H137.902V47.5352H138.188V46.941H138.8V47.5352H139.337V48.034H138.8ZM140.381 47.9082C140.459 47.781 140.561 47.6812 140.685 47.6089C140.812 47.5366 140.957 47.5005 141.119 47.5005V48.1381H140.958C140.767 48.1381 140.623 48.1829 140.524 48.2725C140.429 48.3622 140.381 48.5183 140.381 48.7409V49.938H139.774V47.5352H140.381V47.9082ZM141.836 47.2489C141.729 47.2489 141.639 47.2157 141.567 47.1492C141.497 47.0798 141.463 46.9945 141.463 46.8933C141.463 46.7921 141.497 46.7082 141.567 46.6417C141.639 46.5723 141.729 46.5377 141.836 46.5377C141.943 46.5377 142.031 46.5723 142.1 46.6417C142.172 46.7082 142.209 46.7921 142.209 46.8933C142.209 46.9945 142.172 47.0798 142.1 47.1492C142.031 47.2157 141.943 47.2489 141.836 47.2489ZM142.135 47.5352V49.938H141.528V47.5352H142.135ZM142.579 48.7279C142.579 48.485 142.626 48.2696 142.722 48.0817C142.82 47.8937 142.952 47.7492 143.116 47.648C143.284 47.5468 143.471 47.4962 143.676 47.4962C143.855 47.4962 144.011 47.5323 144.144 47.6046C144.28 47.6769 144.389 47.768 144.47 47.8778V47.5352H145.081V49.938H144.47V49.5867C144.392 49.6994 144.283 49.7934 144.144 49.8686C144.008 49.9409 143.851 49.977 143.672 49.977C143.469 49.977 143.284 49.925 143.116 49.8209C142.952 49.7168 142.82 49.5708 142.722 49.3828C142.626 49.192 142.579 48.9737 142.579 48.7279ZM144.47 48.7366C144.47 48.5891 144.441 48.4634 144.383 48.3593C144.325 48.2523 144.247 48.1713 144.149 48.1164C144.05 48.0586 143.945 48.0296 143.832 48.0296C143.719 48.0296 143.615 48.0571 143.52 48.112C143.424 48.167 143.346 48.2479 143.286 48.3549C143.228 48.459 143.199 48.5833 143.199 48.7279C143.199 48.8725 143.228 48.9997 143.286 49.1096C143.346 49.2166 143.424 49.299 143.52 49.3568C143.618 49.4146 143.722 49.4436 143.832 49.4436C143.945 49.4436 144.05 49.4161 144.149 49.3611C144.247 49.3033 144.325 49.2224 144.383 49.1183C144.441 49.0113 144.47 48.8841 144.47 48.7366ZM146.281 46.7285V49.938H145.674V46.7285H146.281ZM147.767 48.42C147.767 48.1222 147.834 47.8561 147.967 47.6219C148.103 47.3848 148.286 47.2012 148.518 47.0711C148.752 46.9381 149.013 46.8716 149.303 46.8716C149.641 46.8716 149.937 46.9584 150.192 47.1318C150.446 47.3053 150.624 47.5453 150.725 47.8518H150.027C149.958 47.7072 149.859 47.5988 149.732 47.5265C149.608 47.4542 149.463 47.4181 149.298 47.4181C149.122 47.4181 148.964 47.46 148.826 47.5439C148.69 47.6248 148.583 47.7405 148.505 47.8908C148.429 48.0412 148.392 48.2176 148.392 48.42C148.392 48.6195 148.429 48.7959 148.505 48.9491C148.583 49.0995 148.69 49.2166 148.826 49.3004C148.964 49.3814 149.122 49.4219 149.298 49.4219C149.463 49.4219 149.608 49.3857 149.732 49.3134C149.859 49.2383 149.958 49.1284 150.027 48.9838H150.725C150.624 49.2932 150.446 49.5346 150.192 49.7081C149.94 49.8787 149.644 49.964 149.303 49.964C149.013 49.964 148.752 49.899 148.518 49.7688C148.286 49.6358 148.103 49.4522 147.967 49.218C147.834 48.9838 147.767 48.7178 147.767 48.42ZM152.311 49.977C152.079 49.977 151.871 49.9264 151.686 49.8252C151.501 49.7211 151.355 49.5751 151.248 49.3872C151.144 49.1992 151.092 48.9824 151.092 48.7366C151.092 48.4908 151.146 48.274 151.253 48.086C151.362 47.8981 151.511 47.7535 151.699 47.6523C151.887 47.5482 152.097 47.4962 152.328 47.4962C152.559 47.4962 152.769 47.5482 152.957 47.6523C153.145 47.7535 153.292 47.8981 153.399 48.086C153.509 48.274 153.564 48.4908 153.564 48.7366C153.564 48.9824 153.508 49.1992 153.395 49.3872C153.285 49.5751 153.135 49.7211 152.944 49.8252C152.756 49.9264 152.545 49.977 152.311 49.977ZM152.311 49.4479C152.421 49.4479 152.523 49.4219 152.619 49.3698C152.717 49.3149 152.795 49.2339 152.853 49.1269C152.911 49.02 152.94 48.8898 152.94 48.7366C152.94 48.5082 152.879 48.3332 152.758 48.2118C152.639 48.0875 152.493 48.0253 152.319 48.0253C152.146 48.0253 152 48.0875 151.881 48.2118C151.766 48.3332 151.708 48.5082 151.708 48.7366C151.708 48.965 151.764 49.1414 151.877 49.2657C151.993 49.3872 152.137 49.4479 152.311 49.4479ZM156.994 47.5005C157.289 47.5005 157.526 47.5916 157.705 47.7737C157.887 47.953 157.978 48.2046 157.978 48.5284V49.938H157.371V48.6108C157.371 48.4229 157.323 48.2797 157.228 48.1814C157.132 48.0802 157.002 48.0296 156.837 48.0296C156.673 48.0296 156.541 48.0802 156.443 48.1814C156.347 48.2797 156.3 48.4229 156.3 48.6108V49.938H155.692V48.6108C155.692 48.4229 155.645 48.2797 155.549 48.1814C155.454 48.0802 155.324 48.0296 155.159 48.0296C154.991 48.0296 154.858 48.0802 154.76 48.1814C154.665 48.2797 154.617 48.4229 154.617 48.6108V49.938H154.01V47.5352H154.617V47.8258C154.695 47.7246 154.795 47.6451 154.916 47.5872C155.04 47.5294 155.176 47.5005 155.324 47.5005C155.512 47.5005 155.679 47.541 155.827 47.6219C155.974 47.7 156.089 47.8128 156.17 47.9602C156.248 47.8215 156.36 47.7101 156.508 47.6263C156.658 47.5424 156.82 47.5005 156.994 47.5005ZM159.162 47.8822C159.24 47.7723 159.347 47.6812 159.483 47.6089C159.621 47.5338 159.779 47.4962 159.955 47.4962C160.161 47.4962 160.346 47.5468 160.51 47.648C160.678 47.7492 160.81 47.8937 160.905 48.0817C161.003 48.2667 161.053 48.4821 161.053 48.7279C161.053 48.9737 161.003 49.192 160.905 49.3828C160.81 49.5708 160.678 49.7168 160.51 49.8209C160.346 49.925 160.161 49.977 159.955 49.977C159.779 49.977 159.623 49.9409 159.487 49.8686C159.354 49.7963 159.245 49.7052 159.162 49.5954V51.083H158.554V47.5352H159.162V47.8822ZM160.432 48.7279C160.432 48.5833 160.402 48.459 160.341 48.3549C160.283 48.2479 160.205 48.167 160.107 48.112C160.012 48.0571 159.908 48.0296 159.795 48.0296C159.685 48.0296 159.581 48.0586 159.483 48.1164C159.387 48.1713 159.309 48.2523 159.248 48.3593C159.19 48.4662 159.162 48.592 159.162 48.7366C159.162 48.8812 159.19 49.0069 159.248 49.1139C159.309 49.2209 159.387 49.3033 159.483 49.3611C159.581 49.4161 159.685 49.4436 159.795 49.4436C159.908 49.4436 160.012 49.4146 160.107 49.3568C160.205 49.299 160.283 49.2166 160.341 49.1096C160.402 49.0026 160.432 48.8754 160.432 48.7279ZM161.338 48.7279C161.338 48.485 161.385 48.2696 161.481 48.0817C161.579 47.8937 161.711 47.7492 161.875 47.648C162.043 47.5468 162.23 47.4962 162.435 47.4962C162.614 47.4962 162.77 47.5323 162.903 47.6046C163.039 47.6769 163.148 47.768 163.229 47.8778V47.5352H163.84V49.938H163.229V49.5867C163.151 49.6994 163.042 49.7934 162.903 49.8686C162.767 49.9409 162.61 49.977 162.431 49.977C162.228 49.977 162.043 49.925 161.875 49.8209C161.711 49.7168 161.579 49.5708 161.481 49.3828C161.385 49.192 161.338 48.9737 161.338 48.7279ZM163.229 48.7366C163.229 48.5891 163.2 48.4634 163.142 48.3593C163.084 48.2523 163.006 48.1713 162.908 48.1164C162.809 48.0586 162.704 48.0296 162.591 48.0296C162.478 48.0296 162.374 48.0571 162.279 48.112C162.183 48.167 162.105 48.2479 162.045 48.3549C161.987 48.459 161.958 48.5833 161.958 48.7279C161.958 48.8725 161.987 48.9997 162.045 49.1096C162.105 49.2166 162.183 49.299 162.279 49.3568C162.377 49.4146 162.481 49.4436 162.591 49.4436C162.704 49.4436 162.809 49.4161 162.908 49.3611C163.006 49.3033 163.084 49.2224 163.142 49.1183C163.2 49.0113 163.229 48.8841 163.229 48.7366ZM165.765 47.5005C166.051 47.5005 166.282 47.5916 166.459 47.7737C166.635 47.953 166.723 48.2046 166.723 48.5284V49.938H166.116V48.6108C166.116 48.42 166.068 48.274 165.973 48.1728C165.878 48.0687 165.747 48.0166 165.583 48.0166C165.415 48.0166 165.282 48.0687 165.184 48.1728C165.088 48.274 165.04 48.42 165.04 48.6108V49.938H164.433V47.5352H165.04V47.8345C165.121 47.7304 165.224 47.6494 165.348 47.5916C165.476 47.5309 165.614 47.5005 165.765 47.5005ZM169.599 47.5352L168.112 51.0743H167.465L167.986 49.8773L167.023 47.5352H167.704L168.324 49.2137L168.953 47.5352H169.599Z" fill="white"/>
</svg>
