<svg width="140" height="32" viewBox="0 0 140 32" fill="none" xmlns="http://www.w3.org/2000/svg">
<path fill-rule="evenodd" clip-rule="evenodd" d="M23.771 11.4958L23.7663 11.4969C21.9589 11.9169 20.6576 13.2026 20.1606 15.049L20.1602 15.0507C19.3436 18.1046 21.5692 21.3621 24.7459 21.3621C25.3592 21.3621 25.9063 21.3059 26.4781 21.0885C27.0296 20.879 27.5367 20.5446 28.1124 20.1037C29.8912 18.7736 31.3193 18.3182 33.2135 18.4066L33.2143 18.4066C33.7512 18.4313 34.2004 18.4799 34.6058 18.5639C35.2774 18.703 35.8287 18.939 36.4593 19.3233C37.2515 19.8147 37.9663 20.1797 38.7101 20.2717C39.5078 20.3704 40.1874 20.1406 40.8651 19.7978C41.7747 19.3421 42.4198 18.5264 42.7465 17.6493C43.0724 16.7748 43.1181 15.7367 42.6819 14.8199C42.2173 13.8365 41.464 13.0981 40.5236 12.7594C39.5767 12.4183 38.5392 12.5195 37.5993 13.0364C36.44 13.6656 35.6542 14.0149 34.9367 14.2048C34.8564 14.226 34.7762 14.2454 34.6958 14.2631C34.0746 14.3996 33.4355 14.4311 32.5679 14.3832L32.5606 14.3828L32.5533 14.3825C32.2197 14.3689 31.8889 14.345 31.6259 14.3197C31.4942 14.307 31.3845 14.2945 31.303 14.2835C31.2532 14.2767 31.2252 14.272 31.2137 14.2701C31.2103 14.2695 31.2083 14.2692 31.2077 14.2691C31.0486 14.2257 30.7319 14.1395 30.4764 14.0791C29.9701 13.9507 29.2147 13.522 28.1765 12.5944M30.2353 15.0688C30.4803 15.1265 30.7972 15.2129 30.9557 15.2562C31.1142 15.2994 31.8058 15.3715 32.5118 15.4003C33.4072 15.4497 34.1253 15.4223 34.8397 15.2739C35.7919 15.0761 36.7375 14.6632 38.0877 13.9303C38.6398 13.626 39.2095 13.5244 39.7426 13.6066C40.5728 13.7346 41.3142 14.3083 41.7617 15.2562C42.3524 16.4956 41.704 18.2394 40.4073 18.8879C40.1505 19.0179 39.9182 19.1167 39.6964 19.1821C38.8855 19.421 38.2145 19.2137 36.9927 18.4556C36.2452 17.9997 35.5785 17.7226 34.7918 17.5623C34.335 17.4693 33.8379 17.4156 33.261 17.3891C31.0998 17.2882 29.4429 17.8359 27.4978 19.2915C26.3884 20.1417 25.8409 20.3435 24.7459 20.3435C22.311 20.3435 20.4812 17.7926 21.1439 15.3138C21.5474 13.815 22.5703 12.8206 23.9967 12.4891C25.2934 12.2009 26.5469 12.5035 27.4978 13.3538C28.5784 14.3194 29.4861 14.8815 30.2353 15.0688ZM23.771 11.4958L23.7758 11.4948ZM23.7758 11.4948C25.3704 11.1403 26.9643 11.5107 28.1763 12.5942Z" fill="#171717"/>
<path fill-rule="evenodd" clip-rule="evenodd" d="M3.17835 19.5472L3.17403 19.5481C1.71464 19.8506 0.590216 20.797 0.155061 22.2391L0.15479 22.24L0.154521 22.2409C-0.588146 24.7187 1.45417 27.0918 3.97178 27.0918C4.46146 27.0918 4.9084 27.052 5.37994 26.8921C5.8358 26.7376 6.25209 26.4917 6.71271 26.177C8.08145 25.2643 9.17754 24.9505 10.6475 25.0117L10.6482 25.0117C11.7606 25.0573 12.3752 25.2197 13.1443 25.6377C13.776 25.9871 14.3619 26.256 14.9758 26.3237C15.6342 26.3964 16.1947 26.2263 16.7451 25.978C17.5325 25.6259 18.1629 24.9221 18.4405 24.1104C18.67 23.4396 18.6585 22.6952 18.2956 22.0147C17.7055 20.9009 16.6395 20.2874 15.5018 20.2942C15.0211 20.2971 14.5275 20.4107 14.0516 20.6441C13.1418 21.0846 12.5342 21.3246 11.9834 21.4546C11.4466 21.5813 10.9156 21.6147 10.1488 21.5769L10.1423 21.5766L10.1358 21.5764C9.87452 21.5668 9.61553 21.5501 9.40993 21.5325C9.30694 21.5237 9.22184 21.515 9.15934 21.5074C9.11999 21.5027 9.09953 21.4995 9.09307 21.4986C8.9661 21.4677 8.71961 21.4079 8.51917 21.3657C8.15187 21.2823 7.58233 20.9989 6.77782 20.3576M8.30269 22.361C8.49593 22.4016 8.74601 22.4624 8.87105 22.4929C8.99609 22.5233 9.54172 22.574 10.0987 22.5943C10.3466 22.6065 10.5772 22.612 10.7965 22.6096C12.0357 22.5958 12.9139 22.3267 14.4978 21.5597C15.0256 21.3003 15.5738 21.2502 16.0662 21.3859C16.6132 21.5366 17.0914 21.9164 17.3965 22.4929C17.533 22.7484 17.5856 23.0344 17.5661 23.3226C17.5189 24.0181 17.0513 24.7261 16.328 25.0488C15.3845 25.4748 14.8616 25.4241 13.6339 24.7445C12.9396 24.3668 12.3336 24.1635 11.5575 24.0634C11.2917 24.0291 11.0059 24.0069 10.6898 23.994C8.98472 23.923 7.67749 24.3084 6.14292 25.3328C5.26764 25.9312 4.83569 26.0732 3.97178 26.0732C2.05072 26.0732 0.607079 24.278 1.12997 22.5334C1.44825 21.4786 2.25533 20.7788 3.38068 20.5455C4.40373 20.3426 5.39268 20.5556 6.14292 21.154C6.99546 21.8336 7.71159 22.2292 8.30269 22.361ZM6.77756 20.3574C5.76661 19.5512 4.46466 19.2921 3.18267 19.5463L3.17835 19.5472" fill="#171717"/>
<path fill-rule="evenodd" clip-rule="evenodd" d="M16.9113 7.18692L16.9161 7.18806C17.5929 7.3475 18.1583 7.69865 18.5759 8.19387C18.8826 8.55761 19.1095 8.99907 19.2424 9.49939L19.2428 9.50101C19.7556 11.4452 18.3713 13.5952 16.2689 13.5952C15.8997 13.5952 15.5348 13.5609 15.146 13.4112C15.1119 13.398 15.0781 13.3842 15.0447 13.3697C14.7187 13.2285 14.4263 13.0263 14.1293 12.7959C13.2213 12.1081 12.5371 11.8965 11.6144 11.9401L11.6136 11.9402C10.8926 11.9737 10.5254 12.087 10.0439 12.3842C9.60022 12.6631 9.13259 12.9162 8.61455 12.9812C8.04117 13.0531 7.56703 12.8793 7.15683 12.6691C6.53648 12.3538 6.11161 11.7995 5.89888 11.2207C5.68694 10.644 5.64843 9.93787 5.94936 9.29661C6.24726 8.65804 6.74524 8.14834 7.39668 7.91048C8.05623 7.66966 8.76867 7.74697 9.394 8.09525C10.0244 8.44201 10.4192 8.61582 10.7608 8.70742C11.0845 8.79425 11.4119 8.82085 11.9232 8.79225L11.9305 8.79184L11.9379 8.79153C12.1133 8.78427 12.2873 8.7715 12.4243 8.75815C12.493 8.75145 12.5473 8.7451 12.5846 8.73998C12.5913 8.73907 12.5968 8.73827 12.6014 8.73759C12.6939 8.71206 12.8557 8.66781 12.9919 8.63507C13.1624 8.59017 13.5114 8.4105 14.0653 7.90881C14.8511 7.19651 15.8873 6.9562 16.9064 7.18583L16.9113 7.18692ZM14.7491 8.66362C14.1523 9.20418 13.651 9.51883 13.2372 9.62371C13.102 9.65598 12.9269 9.70439 12.8394 9.72859C12.7519 9.7528 12.3699 9.79314 11.98 9.80927C11.5585 9.83285 11.2081 9.8252 10.8695 9.77098C10.2814 9.67678 9.72883 9.44205 8.90064 8.98634C8.12085 8.55067 7.27741 8.85725 6.8716 9.72859C6.54536 10.4224 6.90342 11.3987 7.61956 11.7617C8.27999 12.1006 8.64602 12.0602 9.50538 11.5197C9.78196 11.3487 10.0385 11.2226 10.3084 11.1311C10.6752 11.0066 11.0666 10.9459 11.5663 10.9227C12.7598 10.8662 13.6749 11.1728 14.7491 11.9876C14.9967 12.18 15.1937 12.3131 15.3804 12.4034C15.6556 12.5365 15.9086 12.5766 16.2689 12.5766C17.6136 12.5766 18.6242 11.1486 18.2581 9.76087C18.1642 9.40699 18.0094 9.10334 17.8026 8.85658C17.5192 8.51824 17.1382 8.28685 16.6826 8.17954C15.9665 8.01819 15.2742 8.18761 14.7491 8.66362ZM12.6166 8.73519L12.6159 8.73532C12.619 8.73471 12.6195 8.73469 12.6166 8.73519Z" fill="#171717"/>
<path fill-rule="evenodd" clip-rule="evenodd" d="M39.6964 19.1821C38.3368 26.2273 32.1388 31.5482 24.6985 31.5482C19.1086 31.5482 14.22 28.5449 11.5575 24.0634C12.3336 24.1635 12.9396 24.3668 13.6339 24.7445C14.8616 25.4241 15.3845 25.4748 16.328 25.0488C17.0513 24.7261 17.5189 24.0181 17.5661 23.3226C16.9918 22.7417 16.4873 22.0916 16.0662 21.3859C15.5738 21.2502 15.0256 21.3003 14.4978 21.5597C12.9139 22.3267 12.0357 22.5958 10.7965 22.6096C9.91467 20.6782 9.42326 18.531 9.42326 16.2691C9.42326 14.4664 9.73534 12.7367 10.3084 11.1311C10.6752 11.0066 11.0666 10.9459 11.5663 10.9227C12.7598 10.8662 13.6749 11.1728 14.7491 11.9876C14.9967 12.18 15.1937 12.3131 15.3804 12.4034C15.6556 12.5365 15.9086 12.5766 16.2689 12.5766C17.6136 12.5766 18.6242 11.1486 18.2581 9.76087C18.1642 9.40699 18.0094 9.10334 17.8026 8.85658C17.5192 8.51824 17.1382 8.28685 16.6826 8.17954C15.9665 8.01819 15.2742 8.18761 14.7491 8.66362C14.1523 9.20418 13.651 9.51883 13.2372 9.62371C13.102 9.65598 12.9269 9.70439 12.8394 9.72859C12.7519 9.7528 12.3699 9.79314 11.98 9.80927C11.5585 9.83285 11.2081 9.8252 10.8695 9.77098C13.3108 4.58189 18.5853 0.989868 24.6985 0.989868C32.2268 0.989868 38.4831 6.43739 39.7426 13.6066C39.2095 13.5244 38.6398 13.626 38.0877 13.9303C36.7375 14.6632 35.7919 15.0761 34.8397 15.2739C34.1253 15.4223 33.4072 15.4497 32.5118 15.4003C31.8058 15.3715 31.1142 15.2994 30.9557 15.2562C30.7972 15.2129 30.4803 15.1265 30.2353 15.0688C29.4861 14.8815 28.5784 14.3194 27.4978 13.3538C26.5469 12.5035 25.2934 12.2009 23.9967 12.4891C22.5703 12.8206 21.5474 13.815 21.1439 15.3138C20.4812 17.7926 22.311 20.3435 24.7459 20.3435C25.8409 20.3435 26.3884 20.1417 27.4978 19.2915C29.4429 17.8359 31.0998 17.2882 33.261 17.3891C33.8379 17.4156 34.335 17.4693 34.7918 17.5623C35.5785 17.7226 36.2452 17.9997 36.9927 18.4556C38.2145 19.2137 38.8855 19.421 39.6964 19.1821ZM23.771 11.4958L23.7663 11.4969C21.9589 11.9169 20.6576 13.2026 20.1606 15.049L20.1602 15.0507C19.3436 18.1046 21.5692 21.3621 24.7459 21.3621C25.3592 21.3621 25.9063 21.3059 26.4781 21.0885C27.0296 20.879 27.5367 20.5446 28.1124 20.1037C29.8912 18.7736 31.3193 18.3182 33.2135 18.4066L33.2143 18.4066C33.7512 18.4313 34.2004 18.4799 34.6058 18.5639C33.5433 23.0168 29.5393 26.3278 24.7621 26.3278C22.3704 26.3278 20.1725 25.498 18.4405 24.1104C18.67 23.4396 18.6585 22.6952 18.2956 22.0147C17.7055 20.9009 16.6395 20.2874 15.5018 20.2942C14.9492 19.0438 14.6423 17.6604 14.6423 16.2054C14.6423 15.221 14.7828 14.2695 15.0447 13.3697C15.0781 13.3842 15.1119 13.398 15.146 13.4112C15.5348 13.5609 15.8997 13.5952 16.2689 13.5952C18.3713 13.5952 19.7556 11.4452 19.2428 9.50101L19.2424 9.49939C19.1095 8.99907 18.8826 8.55761 18.5759 8.19387C20.2864 6.87045 22.4323 6.08293 24.7621 6.08293C29.687 6.08293 33.7902 9.60184 34.6958 14.2631C34.0746 14.3996 33.4355 14.4311 32.5679 14.3832L32.5606 14.3828L32.5533 14.3825C32.2197 14.3689 31.8889 14.345 31.6259 14.3197C31.4942 14.307 31.3845 14.2945 31.303 14.2835C31.2532 14.2767 31.2252 14.272 31.2137 14.2701C31.2103 14.2695 31.2083 14.2692 31.2077 14.2691C31.0486 14.2257 30.7319 14.1395 30.4764 14.0791C29.9701 13.9507 29.2147 13.522 28.1765 12.5944L23.771 11.4958ZM23.7758 11.4948C25.3704 11.1403 26.9643 11.5107 28.1763 12.5942L23.7758 11.4948Z" fill="#171717"/>
<path d="M49.8497 16.7038C49.8497 14.1836 50.395 11.942 51.4855 9.97912C52.576 7.992 54.0905 6.45319 56.0292 5.3627C57.9921 4.24798 60.2094 3.69061 62.6812 3.69061C65.7103 3.69061 68.3033 4.49031 70.46 6.0897C72.6168 7.68909 74.0587 9.87007 74.7857 12.6327H67.9519C67.443 11.5664 66.716 10.7546 65.7709 10.1972C64.8501 9.63986 63.7959 9.36117 62.6085 9.36117C60.6941 9.36117 59.1432 10.0276 57.9557 11.3604C56.7683 12.6932 56.1746 14.4744 56.1746 16.7038C56.1746 18.9333 56.7683 20.7144 57.9557 22.0472C59.1432 23.3801 60.6941 24.0465 62.6085 24.0465C63.7959 24.0465 64.8501 23.7678 65.7709 23.2104C66.716 22.6531 67.443 21.8413 67.9519 20.775H74.7857C74.0587 23.5376 72.6168 25.7186 70.46 27.318C68.3033 28.8931 65.7103 29.6807 62.6812 29.6807C60.2094 29.6807 57.9921 29.1354 56.0292 28.0449C54.0905 26.9302 52.576 25.3914 51.4855 23.4285C50.395 21.4656 49.8497 19.2241 49.8497 16.7038Z" fill="#171717"/>
<path d="M94.9851 12.0511C94.5247 11.2029 93.8583 10.5607 92.9859 10.1245C92.1377 9.66409 91.1321 9.43387 89.9689 9.43387C87.9575 9.43387 86.346 10.1003 85.1343 11.4331C83.9227 12.7417 83.3169 14.4986 83.3169 16.7038C83.3169 19.0544 83.9469 20.8962 85.2071 22.229C86.4914 23.5376 88.2483 24.1919 90.4778 24.1919C92.0045 24.1919 93.2888 23.8041 94.3308 23.0287C95.3971 22.2532 96.1726 21.1385 96.6572 19.6845H88.7693V15.1044H102.291V20.884C101.831 22.435 101.043 23.8768 99.9287 25.2097C98.8382 26.5425 97.4448 27.6209 95.7485 28.4448C94.0522 29.2687 92.1377 29.6807 90.0052 29.6807C87.485 29.6807 85.2313 29.1354 83.2442 28.0449C81.2813 26.9302 79.7425 25.3914 78.6277 23.4285C77.5373 21.4656 76.992 19.2241 76.992 16.7038C76.992 14.1836 77.5373 11.942 78.6277 9.97912C79.7425 7.992 81.2813 6.45319 83.2442 5.3627C85.207 4.24798 87.4486 3.69061 89.9689 3.69061C93.0223 3.69061 95.591 4.42972 97.675 5.90795C99.7833 7.38617 101.177 9.43387 101.855 12.0511H94.9851Z" fill="#171717"/>
<path d="M111.404 3.98141V29.4989H105.188V3.98141H111.404Z" fill="#171717"/>
<path d="M114.309 16.7038C114.309 14.1836 114.854 11.942 115.944 9.97912C117.035 7.992 118.549 6.45319 120.488 5.3627C122.451 4.24798 124.668 3.69061 127.14 3.69061C130.169 3.69061 132.762 4.49031 134.919 6.0897C137.076 7.68909 138.518 9.87007 139.245 12.6327H132.411C131.902 11.5664 131.175 10.7546 130.23 10.1972C129.309 9.63986 128.255 9.36117 127.067 9.36117C125.153 9.36117 123.602 10.0276 122.415 11.3604C121.227 12.6932 120.633 14.4744 120.633 16.7038C120.633 18.9333 121.227 20.7144 122.415 22.0472C123.602 23.3801 125.153 24.0465 127.067 24.0465C128.255 24.0465 129.309 23.7678 130.23 23.2104C131.175 22.6531 131.902 21.8413 132.411 20.775H139.245C138.518 23.5376 137.076 25.7186 134.919 27.318C132.762 28.8931 130.169 29.6807 127.14 29.6807C124.668 29.6807 122.451 29.1354 120.488 28.0449C118.549 26.9302 117.035 25.3914 115.944 23.4285C114.854 21.4656 114.309 19.2241 114.309 16.7038Z" fill="#171717"/>
</svg>
