<svg width="140" height="32" viewBox="0 0 140 32" fill="none" xmlns="http://www.w3.org/2000/svg">
<path d="M40.7636 15.5811C40.7636 24.1863 33.7895 31.1623 25.1865 31.1623C16.5836 31.1623 9.60948 24.1863 9.60948 15.5811C9.60948 6.97591 16.5836 0 25.1865 0C33.7895 0 40.7636 6.97591 40.7636 15.5811Z" fill="white"/>
<path d="M35.5712 15.5162C35.5712 21.2172 30.9509 25.8387 25.2514 25.8387C19.552 25.8387 14.9316 21.2172 14.9316 15.5162C14.9316 9.81525 19.552 5.19371 25.2514 5.19371C30.9509 5.19371 35.5712 9.81525 35.5712 15.5162Z" fill="#171717"/>
<path d="M24.4709 11.7265C23.0163 12.0645 21.9732 13.0786 21.5618 14.607C20.8859 17.1348 22.7519 19.7361 25.2349 19.7361C26.3516 19.7361 26.9099 19.5303 28.0412 18.6633C30.0247 17.1789 31.7144 16.6204 33.9183 16.7233C35.5198 16.7968 36.5189 17.076 37.7237 17.8109C39.3105 18.7955 39.9864 18.869 41.2058 18.2517C42.5282 17.5904 43.1893 15.8121 42.5869 14.5482C41.8376 12.961 40.2802 12.4025 38.8403 13.1962C36.4307 14.5041 35.2847 14.8128 33.1543 14.6952C32.4343 14.6658 31.7291 14.5923 31.5675 14.5482C31.4058 14.5041 31.0826 14.416 30.8328 14.3572C30.0688 14.1661 29.1432 13.593 28.0412 12.6083C27.0715 11.7412 25.7933 11.4326 24.4709 11.7265Z" fill="#171717"/>
<path fill-rule="evenodd" clip-rule="evenodd" d="M24.2408 10.7136L24.2359 10.7147C22.3929 11.143 21.0658 12.4541 20.559 14.337L20.5586 14.3387C19.7259 17.4529 21.9955 20.7748 25.2349 20.7748C25.8604 20.7748 26.4182 20.7175 27.0014 20.4959C27.5638 20.2821 28.0809 19.9412 28.668 19.4915C30.4819 18.1351 31.9382 17.6708 33.8699 17.7609L33.8707 17.761C35.3253 17.8277 36.1486 18.0674 37.1798 18.6957C37.9877 19.1968 38.7166 19.5691 39.4751 19.6629C40.2885 19.7635 40.9816 19.5292 41.6727 19.1796C42.6002 18.7149 43.258 17.8831 43.5913 16.9887C43.9235 16.0968 43.9701 15.0383 43.5253 14.1033C43.0515 13.1005 42.2834 12.3475 41.3244 12.0021C40.3588 11.6542 39.3008 11.7575 38.3424 12.2846C37.1601 12.9263 36.3588 13.2824 35.6271 13.4761C34.9129 13.665 34.2108 13.7132 33.2115 13.658L33.2041 13.6576L33.1966 13.6573C32.8564 13.6434 32.5191 13.6191 32.2509 13.5933C32.1166 13.5803 32.0047 13.5676 31.9216 13.5563C31.8557 13.5474 31.8273 13.5419 31.8244 13.5416C31.6621 13.4974 31.3392 13.4095 31.0787 13.3479C30.5623 13.2169 29.792 12.7798 28.7333 11.8339M30.8328 14.3572C31.0826 14.416 31.4058 14.5041 31.5675 14.5482C31.7291 14.5923 32.4343 14.6658 33.1543 14.6952C35.2847 14.8128 36.4307 14.5041 38.8403 13.1962C40.2802 12.4025 41.8376 12.961 42.5869 14.5482C43.1893 15.8121 42.5282 17.5904 41.2058 18.2517C39.9864 18.869 39.3105 18.7955 37.7237 17.8109C36.5189 17.076 35.5198 16.7968 33.9183 16.7233C31.7144 16.6204 30.0247 17.1789 28.0412 18.6633C26.9099 19.5303 26.3516 19.7361 25.2349 19.7361C22.7519 19.7361 20.8859 17.1348 21.5618 14.607C21.9732 13.0786 23.0163 12.0645 24.4709 11.7265C25.7933 11.4326 27.0715 11.7412 28.0412 12.6083C29.1432 13.593 30.0688 14.1661 30.8328 14.3572ZM24.2408 10.7136L24.2456 10.7125ZM24.2456 10.7125C25.8717 10.3511 27.4972 10.7287 28.7331 11.8336Z" fill="white"/>
<path d="M3.44749 19.9421C2.29989 20.18 1.47687 20.8936 1.1523 21.9693C0.619075 23.7483 2.09124 25.579 4.05027 25.579C4.93125 25.579 5.37174 25.4342 6.26431 24.824C7.82921 23.7793 9.16228 23.3863 10.9011 23.4587C12.1646 23.5104 12.9528 23.7069 13.9033 24.2241C15.1553 24.9171 15.6885 24.9688 16.6506 24.5344C17.6939 24.0689 18.2155 22.8174 17.7403 21.9279C17.1491 20.8109 15.9203 20.4179 14.7843 20.9764C12.8833 21.8969 11.9791 22.1141 10.2983 22.0314C9.73028 22.0107 9.17387 21.959 9.04636 21.9279C8.91885 21.8969 8.66383 21.8348 8.46676 21.7935C7.86399 21.659 7.1337 21.2556 6.26431 20.5627C5.49925 19.9524 4.49076 19.7352 3.44749 19.9421Z" fill="#171717"/>
<path fill-rule="evenodd" clip-rule="evenodd" d="M3.24116 18.924L3.23675 18.9249C1.74852 19.2334 0.60188 20.1985 0.158125 21.6692L0.157849 21.6701L0.157575 21.671C-0.599769 24.1977 1.48291 26.6178 4.05027 26.6178C4.54962 26.6178 5.0054 26.5771 5.48625 26.4141C5.95113 26.2565 6.37564 26.0058 6.84536 25.6849C8.24115 24.7541 9.3589 24.4341 10.8579 24.4965L10.8586 24.4966C11.993 24.543 12.6197 24.7086 13.404 25.1349C14.0482 25.4912 14.6458 25.7654 15.2718 25.8345C15.9432 25.9086 16.5148 25.7352 17.076 25.482C18.5425 24.8262 19.475 22.974 18.6572 21.4403C17.801 19.8246 15.9631 19.2413 14.3293 20.0427C13.4015 20.4918 12.7819 20.7366 12.2202 20.8691C11.6728 20.9983 11.1313 21.0324 10.3493 20.9939L10.3427 20.9936L10.3361 20.9933C10.0697 20.9836 9.80555 20.9666 9.59588 20.9486C9.49086 20.9396 9.40407 20.9307 9.34034 20.923C9.30022 20.9182 9.27935 20.915 9.27276 20.914C9.14329 20.8825 8.89192 20.8216 8.68752 20.7784C8.31297 20.6934 7.73217 20.4044 6.91176 19.7505M8.46676 21.7935C8.66383 21.8348 8.91885 21.8969 9.04636 21.9279C9.17387 21.959 9.73028 22.0107 10.2983 22.0314C11.9791 22.1141 12.8833 21.8969 14.7843 20.9764C15.9203 20.4179 17.1491 20.8109 17.7403 21.9279C18.2155 22.8174 17.6939 24.0689 16.6506 24.5344C15.6885 24.9688 15.1553 24.9171 13.9033 24.2241C12.9528 23.7069 12.1646 23.5104 10.9011 23.4587C9.16228 23.3863 7.82921 23.7793 6.26431 24.824C5.37174 25.4342 4.93125 25.579 4.05027 25.579C2.09124 25.579 0.619075 23.7483 1.1523 21.9693C1.47687 20.8936 2.29989 20.18 3.44749 19.9421C4.49076 19.7352 5.49925 19.9524 6.26431 20.5627C7.1337 21.2556 7.86399 21.659 8.46676 21.7935ZM6.91149 19.7503C5.88057 18.9281 4.55289 18.6639 3.24556 18.9232L3.24116 18.924" fill="white"/>
<path d="M17.0123 7.33176C17.8156 7.52099 18.3918 8.08868 18.619 8.94433C18.9922 10.3594 17.9617 11.8157 16.5904 11.8157C15.9737 11.8157 15.6653 11.7005 15.0405 11.2151C13.9451 10.3841 13.012 10.0715 11.7948 10.1291C10.9104 10.1702 10.3586 10.3265 9.69322 10.7379C8.81688 11.2891 8.44362 11.3303 7.77013 10.9847C7.03985 10.6145 6.6747 9.61897 7.00739 8.91142C7.42122 8.02286 8.28133 7.71022 9.07653 8.1545C10.4073 8.88673 11.0402 9.05951 12.2168 8.99369C12.6144 8.97724 13.0039 8.9361 13.0931 8.91142C13.1824 8.88673 13.3609 8.83737 13.4988 8.80446C13.9208 8.6975 14.432 8.37664 15.0405 7.8254C15.5761 7.33998 16.282 7.16721 17.0123 7.33176Z" fill="#171717"/>
<path fill-rule="evenodd" clip-rule="evenodd" d="M17.2455 6.31952L17.2504 6.32067C18.4476 6.60269 19.3027 7.47284 19.6226 8.67768L19.6231 8.67934C20.146 10.662 18.7343 12.8544 16.5904 12.8544C16.2139 12.8544 15.8418 12.8195 15.4453 12.6668C15.0705 12.5224 14.7423 12.2984 14.4085 12.0393C13.4826 11.3379 12.7848 11.1221 11.8439 11.1667L11.8431 11.1667C11.1078 11.2009 10.7334 11.3165 10.2424 11.6195C9.78993 11.9039 9.31306 12.162 8.78478 12.2283C8.20007 12.3016 7.71657 12.1244 7.29826 11.91C6.66565 11.5885 6.23239 11.0232 6.01545 10.433C5.79932 9.84491 5.76005 9.12483 6.06693 8.47089C6.37072 7.81971 6.87854 7.29994 7.54285 7.05738C8.21544 6.8118 8.94195 6.89064 9.57964 7.24579C10.2225 7.5994 10.6251 7.77665 10.9734 7.87006C11.3036 7.95861 11.6374 7.98574 12.1588 7.95657L12.1663 7.95615L12.1738 7.95584C12.3527 7.94844 12.5301 7.93541 12.6698 7.9218C12.7399 7.91497 12.7953 7.90849 12.8333 7.90327C12.8401 7.90234 12.8458 7.90152 12.8504 7.90083C12.9448 7.87479 13.1097 7.82967 13.2486 7.79628C13.4225 7.7505 13.7784 7.56728 14.3432 7.05567C15.1446 6.32929 16.2012 6.08423 17.2405 6.31841L17.2455 6.31952ZM15.0405 7.8254C14.432 8.37664 13.9208 8.6975 13.4988 8.80446C13.3609 8.83737 13.1824 8.88673 13.0931 8.91142C13.0039 8.9361 12.6144 8.97724 12.2168 8.99369C11.0402 9.05951 10.4073 8.88673 9.07653 8.1545C8.28133 7.71022 7.42122 8.02286 7.00739 8.91142C6.6747 9.61897 7.03985 10.6145 7.77013 10.9847C8.44362 11.3303 8.81688 11.2891 9.69322 10.7379C10.3586 10.3265 10.9104 10.1702 11.7948 10.1291C13.012 10.0715 13.9451 10.3841 15.0405 11.2151C15.6653 11.7005 15.9737 11.8157 16.5904 11.8157C17.9617 11.8157 18.9922 10.3594 18.619 8.94433C18.3918 8.08868 17.8156 7.52099 17.0123 7.33176C16.282 7.16721 15.5761 7.33998 15.0405 7.8254ZM12.866 7.89838L12.8652 7.89851C12.8684 7.89789 12.8688 7.89787 12.866 7.89838Z" fill="white"/>
<path d="M49.8497 15.7038C49.8497 13.1836 50.395 10.942 51.4855 8.97912C52.576 6.992 54.0905 5.45319 56.0292 4.3627C57.9921 3.24798 60.2094 2.69061 62.6812 2.69061C65.7103 2.69061 68.3033 3.49031 70.46 5.0897C72.6168 6.68909 74.0587 8.87007 74.7857 11.6327H67.9519C67.443 10.5664 66.716 9.75458 65.7709 9.19722C64.8501 8.63986 63.7959 8.36117 62.6085 8.36117C60.6941 8.36117 59.1432 9.02759 57.9557 10.3604C56.7683 11.6932 56.1746 13.4744 56.1746 15.7038C56.1746 17.9333 56.7683 19.7144 57.9557 21.0472C59.1432 22.3801 60.6941 23.0465 62.6085 23.0465C63.7959 23.0465 64.8501 22.7678 65.7709 22.2104C66.716 21.6531 67.443 20.8413 67.9519 19.775H74.7857C74.0587 22.5376 72.6168 24.7186 70.46 26.318C68.3033 27.8931 65.7103 28.6807 62.6812 28.6807C60.2094 28.6807 57.9921 28.1354 56.0292 27.0449C54.0905 25.9302 52.576 24.3914 51.4855 22.4285C50.395 20.4656 49.8497 18.2241 49.8497 15.7038Z" fill="white"/>
<path d="M94.9851 11.0511C94.5247 10.2029 93.8583 9.56072 92.9859 9.12452C92.1377 8.66409 91.1321 8.43387 89.9689 8.43387C87.9575 8.43387 86.346 9.10029 85.1343 10.4331C83.9227 11.7417 83.3169 13.4986 83.3169 15.7038C83.3169 18.0544 83.9469 19.8962 85.2071 21.229C86.4914 22.5376 88.2483 23.1919 90.4778 23.1919C92.0045 23.1919 93.2888 22.8041 94.3308 22.0287C95.3971 21.2532 96.1726 20.1385 96.6572 18.6845H88.7693V14.1044H102.291V19.884C101.831 21.435 101.043 22.8768 99.9287 24.2097C98.8382 25.5425 97.4448 26.6209 95.7485 27.4448C94.0522 28.2687 92.1377 28.6807 90.0052 28.6807C87.485 28.6807 85.2313 28.1354 83.2442 27.0449C81.2813 25.9302 79.7425 24.3914 78.6277 22.4285C77.5373 20.4656 76.992 18.2241 76.992 15.7038C76.992 13.1836 77.5373 10.942 78.6277 8.97912C79.7425 6.992 81.2813 5.45319 83.2442 4.3627C85.207 3.24798 87.4486 2.69061 89.9689 2.69061C93.0223 2.69061 95.591 3.42972 97.675 4.90795C99.7833 6.38617 101.177 8.43387 101.855 11.0511H94.9851Z" fill="white"/>
<path d="M111.404 2.98141V28.4989H105.188V2.98141H111.404Z" fill="white"/>
<path d="M114.309 15.7038C114.309 13.1836 114.854 10.942 115.944 8.97912C117.035 6.992 118.549 5.45319 120.488 4.3627C122.451 3.24798 124.668 2.69061 127.14 2.69061C130.169 2.69061 132.762 3.49031 134.919 5.0897C137.076 6.68909 138.518 8.87007 139.245 11.6327H132.411C131.902 10.5664 131.175 9.75458 130.23 9.19722C129.309 8.63986 128.255 8.36117 127.067 8.36117C125.153 8.36117 123.602 9.02759 122.415 10.3604C121.227 11.6932 120.633 13.4744 120.633 15.7038C120.633 17.9333 121.227 19.7144 122.415 21.0472C123.602 22.3801 125.153 23.0465 127.067 23.0465C128.255 23.0465 129.309 22.7678 130.23 22.2104C131.175 21.6531 131.902 20.8413 132.411 19.775H139.245C138.518 22.5376 137.076 24.7186 134.919 26.318C132.762 27.8931 130.169 28.6807 127.14 28.6807C124.668 28.6807 122.451 28.1354 120.488 27.0449C118.549 25.9302 117.035 24.3914 115.944 22.4285C114.854 20.4656 114.309 18.2241 114.309 15.7038Z" fill="white"/>
</svg>
